<?xml version="1.0" encoding="UTF-8"?>
<svg id="Layer_1" data-name="Layer 1" xmlns="http://www.w3.org/2000/svg" viewBox="0 0 300 300">
  <defs>
    <style>
      .cls-1 {
        fill: #5d6e3c;
      }

      .cls-2 {
        fill: #aeafaa;
      }

      .cls-3 {
        fill: rgba(255, 255, 255, .2);
      }

      .cls-4 {
        fill: #fff;
      }

      .cls-5 {
        fill: #acd905;
      }

      .cls-6 {
        fill: #627eea;
      }

      .cls-7 {
        fill: rgba(255, 255, 255, .6);
      }
    </style>
  </defs>
  <g>
    <path d="M150,292.5c-78.575,0-142.5-63.925-142.5-142.5S71.425,7.5,150,7.5s142.5,63.925,142.5,142.5-63.925,142.5-142.5,142.5Z"/>
    <path class="cls-6" d="M150,15c36.06,0,69.961,14.042,95.459,39.541,25.498,25.498,39.541,59.4,39.541,95.459s-14.042,69.961-39.541,95.459c-25.498,25.498-59.4,39.541-95.459,39.541s-69.961-14.042-95.459-39.541c-25.498-25.498-39.541-59.4-39.541-95.459s14.042-69.961,39.541-95.459c25.498-25.498,59.4-39.541,95.459-39.541M150,0C67.157,0,0,67.157,0,150s67.157,150,150,150,150-67.157,150-150S232.843,0,150,0h0Z"/>
  </g>
  <g>
    <path class="cls-5" d="M168.242,173.251h-66.394v-97.021h66.394c22.796,0,41.255,18.48,41.255,41.255v14.489c0,22.797-18.459,41.277-41.255,41.277Z"/>
    <path class="cls-2" d="M185.356,221.771h-83.508v-48.521c0-26.788,21.712-48.5,48.5-48.5h35.008c26.788,0,48.5,21.712,48.5,48.5s-21.712,48.521-48.5,48.521Z"/>
    <path class="cls-1" d="M209.498,131.191v.803c0,22.797-18.459,41.255-41.277,41.255h-66.373c0-13.383,5.444-25.508,14.207-34.293,8.785-8.785,20.91-14.207,34.314-14.207h34.987c8.806,0,17.049,2.343,24.142,6.442Z"/>
    <g>
      <circle class="cls-6" cx="101.98" cy="149.001" r="48.5"/>
      <g>
        <path class="cls-7" d="M103.5,112.626v26.901l22.73,10.153-22.73-37.054Z"/>
        <path class="cls-4" d="M103.5,112.626l-22.73,37.054,22.73-10.153v-26.901Z"/>
        <path class="cls-7" d="M103.5,167.108v18.268l22.73-31.46-22.73,13.192Z"/>
        <path class="cls-4" d="M103.5,185.376v-18.268l-22.73-13.192,22.73,31.46Z"/>
        <path class="cls-3" d="M103.5,162.872l22.73-13.192-22.73-10.153v23.345Z"/>
        <path class="cls-7" d="M80.769,149.68l22.73,13.192v-23.345s-22.73,10.153-22.73,10.153Z"/>
      </g>
    </g>
  </g>
</svg>