<?xml version="1.0" encoding="UTF-8"?>
<svg id="Layer_1" data-name="Layer 1" xmlns="http://www.w3.org/2000/svg" viewBox="0 0 300 300">
  <defs>
    <style>
      .cls-1 {
        fill: #fff;
      }

      .cls-2 {
        fill: #ffd966;
      }
    </style>
  </defs>
  <g>
    <path d="M150,290c-77.196,0-140-62.804-140-140S72.804,10,150,10s140,62.804,140,140-62.804,140-140,140Z"/>
    <path class="cls-2" d="M150,20c34.724,0,67.37,13.522,91.924,38.076,24.554,24.554,38.076,57.2,38.076,91.924s-13.522,67.37-38.076,91.924c-24.554,24.554-57.2,38.076-91.924,38.076s-67.37-13.522-91.924-38.076c-24.554-24.554-38.076-57.2-38.076-91.924s13.522-67.37,38.076-91.924c24.554-24.554,57.2-38.076,91.924-38.076M150,0C67.157,0,0,67.157,0,150s67.157,150,150,150,150-67.157,150-150S232.843,0,150,0h0Z"/>
  </g>
  <g id="Layer_1-2" data-name="Layer 1-2">
    <path id="bottom_bar" data-name="bottom bar" class="cls-1" d="M210.781,226.346l-11.302,3.923-11.23-33.53s-1.469-5.535-5.929-5.535h-64.695s-3.546-.77-6.233,6.932c-2.687,7.684-10.46,32.079-10.46,32.079l-11.696-3.994,12.162-36.915s4.764-10.621,16.389-10.621h65.304s12.609-.376,16.836,13.147c4.227,13.523,10.854,34.533,10.854,34.533v-.018Z"/>
    <path id="middlebottom_bar" data-name="middlebottom bar" class="cls-1" d="M230,202.202l-11.051,5.123-15.726-34.121s-2.257-5.284-5.929-5.535c-2.991-.197-92.421-.179-94.678,0s-3.493-.537-8.006,9.009c-4.102,8.669-13.433,30.467-13.433,30.467l-11.177-5.033,16.389-36.377s3.923-10.693,16.389-10.621c11.624.072,90.845-.179,95.287,0s11.123.681,16.55,12.538c6.466,13.487,15.368,34.551,15.368,34.551h.018Z"/>
    <path id="middletop_bar" data-name="middletop bar" class="cls-2" d="M70,96.956l11.051-5.123,15.726,34.121s2.257,5.284,5.929,5.535c2.991.197,92.421.179,94.678,0s3.493.537,8.006-9.009c4.102-8.669,13.433-30.467,13.433-30.467l11.177,5.033-16.389,36.377s-3.923,10.693-16.389,10.621c-11.624-.072-90.845.179-95.287,0s-11.123-.681-16.55-12.538c-6.484-13.487-15.386-34.551-15.386-34.551Z"/>
    <path id="Top_bar" data-name="Top bar" class="cls-2" d="M89.237,73.654l11.302-3.923,11.23,33.53s1.469,5.535,5.929,5.535h64.695s3.546.77,6.233-6.932,10.46-32.061,10.46-32.061l11.696,3.994-12.162,36.915s-4.764,10.621-16.389,10.621h-65.304s-12.609.376-16.836-13.147c-4.227-13.523-10.854-34.533-10.854-34.533Z"/>
  </g>
</svg>