<?xml version="1.0" encoding="UTF-8"?>
<svg id="Layer_1" data-name="Layer 1" xmlns="http://www.w3.org/2000/svg" viewBox="0 0 300 300">
  <defs>
    <style>
      .cls-1 {
        fill: #a59dff;
      }
    </style>
  </defs>
  <circle class="cls-1" cx="150" cy="150" r="150"/>
  <g>
    <path d="M128.371,68.21l15.425,50.559c.409,1.292,1.218,2.42,2.31,3.221,1.093.801,2.412,1.232,3.766,1.232s2.673-.431,3.766-1.232c1.093-.801,1.902-1.929,2.31-3.221l15.468-50.559c.284-.95.343-1.953.172-2.93-.171-.977-.568-1.9-1.157-2.697-.59-.797-1.357-1.445-2.241-1.893-.884-.448-1.86-.683-2.85-.688h-30.723c-1.008-.032-2.009.178-2.92.612-.911.434-1.705,1.079-2.315,1.881-.611.803-1.022,1.74-1.198,2.734-.176.993-.112,2.016.186,2.979Z"/>
    <path d="M231.756,128.463l-50.482,15.478c-1.291.409-2.418,1.219-3.218,2.312-.8,1.093-1.232,2.413-1.232,3.769s.432,2.674,1.232,3.768c.8,1.093,1.927,1.903,3.218,2.312l50.482,15.436c.952.292,1.959.357,2.94.19.981-.168,1.91-.563,2.711-1.154.801-.591,1.453-1.362,1.903-2.251s.686-1.87.688-2.866v-30.914c-.003-.997-.238-1.979-.688-2.867s-1.102-1.66-1.903-2.251c-.801-.591-1.73-.986-2.711-1.153-.981-.167-1.989-.102-2.94.19Z"/>
    <path d="M171.587,231.792l-15.468-50.559c-.409-1.292-1.218-2.42-2.31-3.221-1.093-.801-2.412-1.232-3.766-1.232s-2.673.431-3.766,1.232c-1.093.801-1.902,1.928-2.31,3.221l-15.596,50.559c-.294.95-.359,1.956-.192,2.936.167.981.563,1.907,1.155,2.707.591.799,1.363,1.447,2.251,1.893.889.445,1.869.674,2.863.67h30.892c1.005.022,2.002-.193,2.907-.63.905-.437,1.695-1.081,2.304-1.882.609-.8,1.02-1.733,1.2-2.723s.124-2.008-.165-2.971Z"/>
    <path d="M175.834,132.758l60.723-31.467c1.033-.541,1.899-1.353,2.505-2.349.606-.997.93-2.139.936-3.306v-29.255c0-1.692-.671-3.314-1.866-4.51-1.196-1.196-2.817-1.869-4.507-1.869h-29.235c-1.169-.008-2.317.31-3.315.918-.998.609-1.807,1.484-2.336,2.527l-31.445,60.721c-.608,1.197-.823,2.556-.613,3.883.209,1.326.831,2.553,1.778,3.505.946.952,2.169,1.58,3.493,1.797,1.324.216,2.683.007,3.883-.594Z"/>
    <path d="M118.852,143.941l-50.524-15.478c-.949-.294-1.954-.359-2.934-.192-.979.167-1.906.563-2.705,1.155-.799.592-1.446,1.363-1.891,2.253-.445.889-.675,1.871-.67,2.865v30.914c-.005.995.225,1.976.67,2.865.445.889,1.093,1.661,1.891,2.253.799.592,1.725.987,2.705,1.155.98.167,1.985.101,2.934-.193l50.524-15.435c1.291-.41,2.419-1.22,3.219-2.312.8-1.093,1.231-2.413,1.231-3.768s-.431-2.675-1.231-3.769c-.8-1.093-1.928-1.903-3.219-2.312Z"/>
    <path d="M167.294,175.832l31.445,60.722c.529,1.043,1.338,1.918,2.337,2.526.998.608,2.146.926,3.315.918h29.235c1.691,0,3.312-.672,4.507-1.869s1.866-2.818,1.866-4.51v-29.043c-.006-1.167-.33-2.31-.936-3.306-.607-.997-1.473-1.809-2.506-2.349l-60.723-31.467c-1.177-.557-2.499-.741-3.783-.525-1.285.217-2.473.822-3.404,1.735-.93.913-1.559,2.089-1.801,3.37-.242,1.281-.086,2.606.448,3.796Z"/>
    <path d="M132.832,124.169l-31.445-60.722c-.537-1.036-1.347-1.906-2.344-2.513-.997-.608-2.141-.93-3.307-.931h-29.278c-1.683.011-3.293.688-4.479,1.883s-1.852,2.811-1.852,4.495v29.255c.002,1.168.324,2.312.93,3.31.607.997,1.476,1.809,2.512,2.345l60.68,31.467c1.201.618,2.566.838,3.901.629,1.334-.209,2.567-.836,3.522-1.791.954-.956,1.582-2.19,1.79-3.525.209-1.335-.011-2.701-.629-3.903Z"/>
    <path d="M124.123,167.243l-60.68,31.467c-1.036.537-1.905,1.348-2.512,2.345-.607.997-.929,2.142-.93,3.31v29.256c0,1.684.666,3.3,1.852,4.495,1.186,1.196,2.797,1.873,4.48,1.883h29.278c1.167-.001,2.311-.323,3.308-.93.996-.608,1.807-1.477,2.344-2.513l31.445-60.722c.617-1.202.838-2.569.629-3.904-.209-1.335-.836-2.569-1.791-3.525-.954-.955-2.188-1.582-3.522-1.791-1.334-.209-2.7.011-3.9.63Z"/>
  </g>
</svg>