<?xml version="1.0" encoding="UTF-8"?>
<svg id="Layer_1" data-name="Layer 1" xmlns="http://www.w3.org/2000/svg" viewBox="0 0 300 300">
  <defs>
    <style>
      .cls-1 {
        fill: #fff;
      }

      .cls-2 {
        fill: #fe9869;
      }
    </style>
  </defs>
  <circle class="cls-2" cx="150" cy="150" r="150"/>
  <g>
    <circle class="cls-1" cx="75.024" cy="150" r="21.852"/>
    <path class="cls-1" d="M53.172,183.52h74.437c22.392,0,40.571,18.179,40.571,40.571h-74.437c-22.392,0-40.571-18.179-40.571-40.571h0Z"/>
    <path class="cls-1" d="M93.743,75.909h74.437c0,22.392-18.179,40.571-40.571,40.571H53.172c0-22.392,18.179-40.571,40.571-40.571Z" transform="translate(221.351 192.389) rotate(-180)"/>
    <path class="cls-1" d="M188.047,193.232v-15.632l34.606-26.952c3.737-2.946,6.792-5.623,9.164-8.032,2.372-2.407,3.558-5.156,3.558-8.247,0-3.377-1.385-5.946-4.151-7.709-2.767-1.76-6.164-2.641-10.188-2.641-4.169,0-7.546.97-10.134,2.911-2.588,1.941-3.846,4.816-3.774,8.625h-20.806c-.073-8.984,3.215-16.045,9.864-21.185,6.647-5.138,15.074-7.671,25.28-7.601,10.493-.071,18.868,2.534,25.121,7.817,6.252,5.282,9.414,11.734,9.486,19.351,0,4.097-.881,7.924-2.642,11.482-1.762,3.558-4.419,6.991-7.977,10.296-3.558,3.306-8.139,6.756-13.746,10.349l-12.29,8.41v.97h37.409v17.788h-68.782Z"/>
  </g>
</svg>