<?xml version="1.0" encoding="UTF-8"?>
<svg id="Layer_1" data-name="Layer 1" xmlns="http://www.w3.org/2000/svg" viewBox="0 0 300 300">
  <defs>
    <style>
      .cls-1 {
        fill: #283a46;
      }

      .cls-2 {
        fill: #ff5050;
      }
    </style>
  </defs>
  <circle class="cls-2" cx="150" cy="150" r="150"/>
  <path class="cls-1" d="M245.292,91.571l-92.781-53.519c-1.69-.977-3.773-.977-5.463,0l-92.781,53.519c-1.689.976-2.73,2.779-2.732,4.73v107.042c.002,1.951,1.043,3.753,2.732,4.73l92.781,53.519c1.691.972,3.772.972,5.463,0l92.781-53.519c1.688-.977,2.729-2.779,2.732-4.73v-107.042c-.001-1.951-1.042-3.753-2.732-4.73ZM149.779,49.087l85.784,49.5c-13.973,7.884-25.763,17.897-35.708,29.057-19.404-22.878-46.35-45.45-82.971-59.567l32.895-18.99ZM219.237,165.079c-2.449,0-4.666-1.451-5.648-3.695-1.292-3.118.187-6.693,3.305-7.985s6.693.187,7.985,3.305c.621,1.498.621,3.182,0,4.68-.98,2.243-3.195,3.694-5.643,3.695ZM219.237,146.751c-1.468.011-2.922.285-4.293.81-3.497-5.162-7.281-10.413-11.565-15.714,9.146-10.461,19.841-19.458,31.712-26.681-6.17,13.473-11.325,27.388-15.422,41.63-.139-.005-.284-.045-.432-.045ZM196.255,131.819c-9.855,11.862-17.762,24.836-24.102,37.8-3.065-44.429-37.215-79.227-55.544-95.85,35.136,13.923,60.998,35.879,79.646,58.05ZM168.355,188.97c-2.449,0-4.666-1.451-5.648-3.695-.299-.731-.452-1.514-.45-2.304-.072-3.384,2.613-6.186,5.997-6.258,3.384-.072,6.186,2.613,6.258,5.997s-2.613,6.186-5.997,6.258c-.051.001-.101.002-.152.001h-.009ZM166.672,170.812c-1.051.129-2.081.392-3.065.783-12.856-17.576-28.291-33.111-45.783-46.08,1.098-1.857,1.682-3.972,1.692-6.129-.008-5.76-4.005-10.746-9.626-12.006v-32.306c16.835,14.922,54.014,50.409,56.759,95.702l.023.036ZM112.803,121.654c-1.365,3.119-5.001,4.541-8.12,3.175-1.42-.622-2.553-1.755-3.175-3.175-.299-.73-.452-1.511-.45-2.3,0-3.373,2.735-6.106,6.108-6.105,3.372,0,6.105,2.734,6.105,6.105-.004.79-.163,1.571-.468,2.3ZM104.401,75.259v32.099c-2.894.66-5.451,2.345-7.2,4.743-10.083-5.736-20.647-10.581-31.572-14.481l38.772-22.361ZM62.479,107.308c8.154,12.078,24.179,37.859,33.89,66.69-.108.067-.229.121-.333.193-10.362-8.98-21.605-16.891-33.557-23.612v-43.272ZM109.081,184.371c.002.79-.151,1.573-.45,2.304-1.268,3.112-4.819,4.606-7.93,3.338s-4.606-4.819-3.338-7.93c1.268-3.112,4.819-4.606,7.93-3.338,2.288.932,3.785,3.156,3.788,5.626ZM104.131,224.214l-41.652-24.026v-43.317c10.587,6.207,20.567,13.395,29.808,21.47-3.371,5.828-1.38,13.285,4.448,16.656,1.675.969,3.556,1.525,5.488,1.623,1.728,9.279,2.556,18.581,1.895,27.594h.013ZM109.351,227.22c1.08-10.314.32-20.952-1.598-31.5.579-.256,1.137-.557,1.67-.9,14.749,16.1,27.17,34.188,36.9,53.735l-36.972-21.335ZM149.298,242.326c-9.699-18.589-21.803-35.821-36-51.251,3.716-5.692,2.113-13.318-3.579-17.034-2.004-1.308-4.346-2.004-6.74-2.001-.46.021-.918.068-1.373.139-9.999-29.858-26.528-56.169-34.835-68.333,9.764,3.658,19.217,8.096,28.269,13.271-.143.742-.218,1.495-.225,2.25,0,6.81,5.519,12.331,12.329,12.331,2.492,0,4.926-.755,6.981-2.166,17.227,12.694,32.418,27.94,45.05,45.212-4.535,4.973-4.18,12.68.793,17.215.666.608,1.398,1.139,2.182,1.586-5.703,15.857-10.003,32.185-12.852,48.794v-.013ZM153.892,248.176c2.734-18.068,7.224-35.827,13.406-53.024.346.032.68.104,1.035.104,1.336-.015,2.66-.249,3.92-.693,6.35,10.734,11.838,21.954,16.412,33.557l-34.772,20.057ZM193.452,225.357c-4.636-11.608-10.165-22.839-16.538-33.593,4.87-4.667,5.035-12.398.369-17.268-.302-.315-.62-.613-.954-.894,6.156-12.866,13.806-25.754,23.472-37.53,3.897,4.869,7.38,9.693,10.607,14.441-4.732,4.838-4.645,12.596.193,17.328.982.96,2.119,1.749,3.362,2.333-3.098,15.203-4.731,30.669-4.878,46.184l-15.633,9ZM214.579,213.175c.343-14.03,1.922-28.003,4.721-41.756,1.189-.02,2.368-.214,3.501-.576,5.261,9.57,9.822,19.508,13.649,29.736l-21.87,12.596ZM237.079,187.525c-2.421-5.571-5.63-12.2-9.558-19.395,5.011-4.515,5.413-12.238.898-17.249-.991-1.1-2.173-2.01-3.49-2.687,3.345-11.615,7.402-23.013,12.15-34.128v73.458Z"/>
</svg>