<?xml version="1.0" encoding="UTF-8"?>
<svg id="Layer_1" data-name="Layer 1" xmlns="http://www.w3.org/2000/svg" xmlns:xlink="http://www.w3.org/1999/xlink" viewBox="0 0 300 300">
  <defs>
    <style>
      .cls-1 {
        fill: url(#linear-gradient);
      }

      .cls-2 {
        fill: #fff;
      }
    </style>
    <linearGradient id="linear-gradient" x1="0" y1="150" x2="300" y2="150" gradientUnits="userSpaceOnUse">
      <stop offset="0" stop-color="#6d6d6d"/>
      <stop offset="1" stop-color="#d0ccc8"/>
    </linearGradient>
  </defs>
  <g>
    <circle cx="150" cy="150" r="150"/>
    <path class="cls-1" d="M150,15c36.06,0,69.961,14.042,95.459,39.541,25.498,25.498,39.541,59.4,39.541,95.459s-14.042,69.961-39.541,95.459c-25.498,25.498-59.4,39.541-95.459,39.541s-69.961-14.042-95.459-39.541c-25.498-25.498-39.541-59.4-39.541-95.459s14.042-69.961,39.541-95.459c25.498-25.498,59.4-39.541,95.459-39.541M150,0C67.157,0,0,67.157,0,150s67.157,150,150,150,150-67.157,150-150S232.843,0,150,0h0Z"/>
  </g>
  <g>
    <path class="cls-2" d="M161.529,198.626c-16.862,4.048-34.617-.949-46.893-13.197-16.471-15.733-19.737-40.824-7.842-60.25,3.789-6.146,8.356-11.777,13.586-16.753,16.593-16.533,47.063-46.618,47.063-46.618-47.054-9.341-93.153,19.904-104.75,66.453-11.61,46.542,15.331,94.009,61.244,107.902l37.592-37.537Z"/>
    <path class="cls-2" d="M138.388,101.408c16.861-4.056,34.618.942,46.888,13.197,16.444,16.449,19.655,40.859,7.782,60.16-3.796,6.15-8.362,11.79-13.586,16.783-16.598,16.508-47.068,46.613-47.068,46.613,47.1,9.435,93.298-19.821,104.905-66.433,11.622-46.607-15.415-94.124-61.418-107.942l-37.502,37.622Z"/>
  </g>
</svg>