<?xml version="1.0" encoding="UTF-8"?>
<svg id="Layer_1" data-name="Layer 1" xmlns="http://www.w3.org/2000/svg" viewBox="0 0 300 300">
  <defs>
    <style>
      .cls-1 {
        fill: #00a965;
      }

      .cls-2 {
        fill: #fff;
      }
    </style>
  </defs>
  <circle class="cls-1" cx="150" cy="150" r="150"/>
  <g>
    <path class="cls-2" d="M142.955,138.425c28.425-16.357,31.133-39.984,34.821-60.957,2.218-12.722,3.145-17.647,3.145-17.647h50.379s-2.398,13.504-4.616,26.208c-3.635,21.046-3.089,36.349-30.624,52.397l-39.457,22.736c-28.425,16.357-31.133,39.984-34.804,60.957-2.218,12.721-3.143,17.629-3.143,17.629h-50.399s2.398-13.504,4.616-26.207c3.635-21.046,3.089-36.349,30.624-52.379l39.457-22.736Z"/>
    <path class="cls-2" d="M131.397,132.082h-20.628c-8.327-.014-16.381-2.957-22.754-8.314-6.373-5.356-10.658-12.785-12.105-20.983l-7.578-42.946h50.397l12.669,72.243Z"/>
    <path class="cls-2" d="M168.182,167.576h20.608c8.343-.003,16.421,2.934,22.812,8.296,6.391,5.361,10.689,12.804,12.139,21.02l7.56,42.929h-50.379l-12.74-72.244Z"/>
  </g>
</svg>