<?xml version="1.0" encoding="UTF-8"?>
<svg id="Layer_1" data-name="Layer 1" xmlns="http://www.w3.org/2000/svg" xmlns:xlink="http://www.w3.org/1999/xlink" viewBox="0 0 300 300">
  <defs>
    <style>
      .cls-1 {
        fill: #fff;
        fill-rule: evenodd;
      }

      .cls-2 {
        fill: url(#linear-gradient);
      }
    </style>
    <linearGradient id="linear-gradient" x1="0" y1="150" x2="300" y2="150" gradientUnits="userSpaceOnUse">
      <stop offset="0" stop-color="#447dff"/>
      <stop offset="1" stop-color="#84eefe"/>
    </linearGradient>
  </defs>
  <circle class="cls-2" cx="150" cy="150" r="150"/>
  <g>
    <path class="cls-1" d="M149.791,49.82l-92.299,53.104,140.435,81.021-48.139,27.658v-21.279l-92.277-53.017-.005,59.276,92.278,53.238,92.284-53.245L102.004,115.769l47.783-27.493v20.878l92.278,53.407v-59.507l-92.274-53.235ZM149.787,224.425l59.274-34.056,10.758,6.206-70.032,40.407v-12.557ZM149.787,75.45v-12.796l-.004-.002-70.021,40.286,11.111,6.41,58.914-33.898ZM138.669,196.758v33.815l-47.807-27.581v-33.701l47.807,27.467ZM79.745,162.903l-11.119-6.388-.003,33.646,11.122,6.417v-33.675ZM160.905,102.744v-33.676l70.042,40.409v33.805l-70.042-40.538Z"/>
    <path class="cls-1" d="M149.783,143.334v12.835l48.143,27.775-48.139,27.658v-21.279l-.004-.002v59.499h0l92.278-53.241v-.007l-92.278-53.238ZM209.062,190.369l-59.275,34.056v12.557l70.032-40.406-10.758-6.206Z"/>
    <path class="cls-1" d="M149.783,88.279v-12.827l-58.91,33.895-11.111-6.41,70.02-40.286v-12.827l-92.278,53.091v.015l92.278,53.238v-12.835l-47.778-27.565,47.778-27.49Z"/>
  </g>
</svg>