<?xml version="1.0" encoding="UTF-8"?>
<svg id="Layer_1" data-name="Layer 1" xmlns="http://www.w3.org/2000/svg" xmlns:xlink="http://www.w3.org/1999/xlink" viewBox="0 0 300 300">
  <defs>
    <style>
      .cls-1 {
        fill: url(#linear-gradient);
      }

      .cls-2 {
        fill: #fff;
      }
    </style>
    <linearGradient id="linear-gradient" x1="43.934" y1="256.066" x2="256.066" y2="43.934" gradientUnits="userSpaceOnUse">
      <stop offset="0" stop-color="#259f1b"/>
      <stop offset="1" stop-color="#10231e"/>
    </linearGradient>
  </defs>
  <circle class="cls-1" cx="150" cy="150" r="150"/>
  <g id="_1eMKvD" data-name="1eMKvD">
    <g>
      <path class="cls-2" d="M137.407,129.463c9.048,9.309-6.505,36.544-2.503,48.232-2.412.337-4.604-.712-6.615-1.911-2.567-1.531-10.461-9.557-13.239-5.997-2.128,4.15,1.809,9.817,5.481,11.707,4.98,2.564,10.551,1.148,15.606,2.496l13.444,42.171c6.361-13.356,10.148-28.082,14.324-42.332l1.379-.678c9.362,1.321,21.79-1.556,19.155-13.683-2.762-3.967-14.227,8.829-18.081,8.644l-1.407-.785c2.273-7.978-1.668-15.744-3.22-23.379-1.68-8.262-5.296-21.9,3.735-26.581,18.878-9.786,65.155-6.319,76.193-26.883,6.188-11.527-2.967-23.987-10.856-31.993-.897-.612.322-2.028.692-2.042.46-.018,7.252,3.373,8.311,3.964,9.723,5.425,19.776,16.029,21.908,27.241,5.851,30.775-35.016,48.102-57.55,57.517-1.246,1.996,4.7,21.31,3.433,25.246l-26.647,24.607c.064,4.681,6.1,9.021,5.023,13.822-.725,3.229-7.941,10.947-9.986,14.607-2.333,4.176-3.777,9.544-5.926,13.87-1.449,1.508-19.064,6.192-21.512,5.872-2.119-.277-17.336-4.626-18.395-5.55-4.464-10.302-9.643-19.642-16.587-28.5-1.277-2.945,4.022-10.313,5.554-13.244l-.206-.883-26.866-24.386c-.861-8.851,4.092-17.199,3.153-26.03-7.884-2.887-15.677-6.051-23.11-9.994-17.868-9.479-40.235-26.075-33.624-49.357,3.796-13.366,17.292-23.992,29.871-28.822.818.752,1.329.859.71,2.061-.633,1.232-4.792,5.046-6.098,6.874-15.992,22.392-1.605,34.172,20.226,40.409,11.258,3.217,47.671,6.939,54.232,13.689Z"/>
      <path class="cls-2" d="M125.346,179.745c-2.817-.414-6.38-1.275-6.136-4.772,3.37-.417,6.292.977,6.136,4.772Z"/>
      <path class="cls-2" d="M180.639,174.972c.788,2.781-6.231,6.458-6.819,3.741-.39-1.797,5.156-4.305,6.819-3.741Z"/>
    </g>
  </g>
</svg>