<?xml version="1.0" encoding="UTF-8"?>
<svg id="Layer_1" data-name="Layer 1" xmlns="http://www.w3.org/2000/svg" viewBox="0 0 300 300">
  <defs>
    <style>
      .cls-1 {
        fill: #12aaff;
      }

      .cls-2 {
        fill: #fff;
      }

      .cls-3 {
        fill: #9dcced;
      }

      .cls-4 {
        fill: #213147;
      }
    </style>
  </defs>
  <path class="cls-4" d="M26.906,91.05v117.682c0,7.466,3.982,14.435,10.524,18.132l101.825,58.805c6.471,3.769,14.506,3.769,20.977,0l101.896-58.805c6.471-3.769,10.524-10.666,10.524-18.132v-117.682c0-7.466-3.982-14.435-10.524-18.203L160.232,14.041c-6.471-3.769-14.506-3.769-20.977,0l-101.896,58.805c-6.4,3.769-10.453,10.666-10.453,18.203Z"/>
  <g>
    <path class="cls-1" d="M172.036,172.681l-14.577,39.82c-.427,1.067-.427,2.347,0,3.413l24.959,68.547,28.941-16.71-34.7-95.141c-.782-2.133-3.84-2.133-4.622.071h0Z"/>
    <path class="cls-1" d="M201.118,105.627c-.782-2.204-3.84-2.204-4.693,0l-14.577,39.82c-.427,1.138-.427,2.347,0,3.413l40.958,112.278,28.941-16.71-50.628-138.801h0Z"/>
  </g>
  <path class="cls-3" d="M149.779,18.379c.711,0,1.422.213,2.062.569l110.216,63.641c1.28.711,2.062,2.062,2.062,3.555v127.281c0,1.493-.782,2.844-2.062,3.555l-110.216,63.712c-.64.356-1.351.569-2.062.569s-1.422-.213-2.062-.569l-110.216-63.641c-1.28-.711-2.062-2.062-2.062-3.555v-127.352c0-1.493.782-2.844,2.062-3.555l110.216-63.641c.64-.356,1.351-.569,2.062-.569M149.779-.18c-3.911,0-7.893,1.067-11.377,3.058L28.186,66.518c-6.968,4.053-11.377,11.519-11.377,19.626v127.281c0,8.106,4.338,15.644,11.377,19.697l110.216,63.641c3.484,2.062,7.395,3.058,11.377,3.058s7.893-1.067,11.377-3.058l110.216-63.641c7.04-4.053,11.377-11.519,11.377-19.697v-127.281c0-8.106-4.338-15.644-11.377-19.697L161.156,2.878c-3.555-1.991-7.466-3.058-11.377-3.058h0Z"/>
  <polygon class="cls-4" points="76.895 261.28 87.063 233.548 107.399 250.472 88.414 267.893 76.895 261.28"/>
  <g>
    <path class="cls-2" d="M140.464,77.113h-27.945c-2.062,0-3.982,1.28-4.693,3.271l-59.872,164.257,28.941,16.71,65.987-180.896c.569-1.635-.64-3.342-2.418-3.342h0Z"/>
    <path class="cls-2" d="M189.386,77.113h-27.945c-2.062,0-3.982,1.28-4.693,3.271l-68.334,187.509,28.941,16.71,74.378-204.148c.64-1.635-.64-3.342-2.347-3.342Z"/>
  </g>
</svg>