<?xml version="1.0" encoding="UTF-8"?>
<svg id="Layer_1" data-name="Layer 1" xmlns="http://www.w3.org/2000/svg" viewBox="0 0 300 300">
  <defs>
    <style>
      .cls-1 {
        fill: #eecbc0;
      }

      .cls-1, .cls-2, .cls-3, .cls-4, .cls-5 {
        fill-rule: evenodd;
      }

      .cls-6, .cls-5 {
        fill: #cab3f5;
      }

      .cls-7 {
        fill: #ece0ff;
      }

      .cls-8 {
        fill: #5d6e3c;
      }

      .cls-9 {
        fill: #aeafaa;
      }

      .cls-2 {
        fill: #c8b2f5;
      }

      .cls-3 {
        fill: #b8fbf6;
      }

      .cls-4 {
        fill: #87a9f0;
      }

      .cls-10 {
        fill: #acd905;
      }

      .cls-11 {
        fill: #3441c0;
      }
    </style>
  </defs>
  <g>
    <path d="M150,292.5c-78.575,0-142.5-63.925-142.5-142.5S71.425,7.5,150,7.5s142.5,63.925,142.5,142.5-63.925,142.5-142.5,142.5Z"/>
    <path class="cls-6" d="M150,15c36.06,0,69.961,14.042,95.459,39.541,25.498,25.498,39.541,59.4,39.541,95.459s-14.042,69.961-39.541,95.459c-25.498,25.498-59.4,39.541-95.459,39.541s-69.961-14.042-95.459-39.541c-25.498-25.498-39.541-59.4-39.541-95.459s14.042-69.961,39.541-95.459c25.498-25.498,59.4-39.541,95.459-39.541M150,0C67.157,0,0,67.157,0,150s67.157,150,150,150,150-67.157,150-150S232.843,0,150,0h0Z"/>
  </g>
  <g>
    <path class="cls-10" d="M168.242,173.251h-66.394v-97.021h66.394c22.796,0,41.255,18.48,41.255,41.255v14.489c0,22.797-18.459,41.277-41.255,41.277Z"/>
    <path class="cls-9" d="M185.356,221.771h-83.508v-48.521c0-26.788,21.712-48.5,48.5-48.5h35.008c26.788,0,48.5,21.712,48.5,48.5s-21.712,48.521-48.5,48.521Z"/>
    <path class="cls-8" d="M209.498,131.191v.803c0,22.797-18.459,41.255-41.277,41.255h-66.373c0-13.383,5.444-25.508,14.207-34.293,8.785-8.785,20.91-14.207,34.314-14.207h34.987c8.806,0,17.049,2.343,24.142,6.442Z"/>
    <path class="cls-7" d="M101.98,197.696c26.894,0,48.695-21.802,48.695-48.695s-21.801-48.695-48.695-48.695-48.695,21.801-48.695,48.695,21.801,48.695,48.695,48.695Z"/>
    <g id="Ethereum">
      <g id="Bottom">
        <g id="Purple2">
          <g>
            <path class="cls-2" d="M129.907,154.542l-27.927,37.039v-20.795l27.927-16.244Z"/>
            <path class="cls-11" d="M101.98,192.01c-.046,0-.092-.007-.136-.022-.175-.059-.293-.223-.293-.408v-20.795c0-.153.081-.294.214-.371l27.927-16.244c.177-.102.402-.066.537.086.136.153.145.381.022.544l-27.927,37.039c-.083.11-.211.171-.343.171ZM102.409,171.033v19.264l25.872-34.313-25.872,15.049Z"/>
          </g>
        </g>
        <g id="Yellow2">
          <g>
            <path class="cls-1" d="M74.055,154.542l27.927,37.039v-20.795l-27.927-16.244Z"/>
            <path class="cls-11" d="M101.982,192.01c-.132,0-.26-.061-.343-.171l-27.927-37.039c-.123-.163-.114-.391.022-.544.136-.152.361-.189.537-.086l27.927,16.244c.132.077.214.218.214.371v20.795c0,.185-.118.349-.293.408-.045.015-.091.022-.136.022ZM75.681,155.985l25.872,34.313v-19.264l-25.872-15.049Z"/>
          </g>
        </g>
      </g>
      <g id="Top">
        <g id="Blue1">
          <g>
            <path class="cls-4" d="M74.049,150.25l27.932-12.42v28.313l-27.932-15.893Z"/>
            <path class="cls-11" d="M101.981,166.597c-.077,0-.155-.02-.225-.059l-27.932-15.893c-.149-.085-.237-.246-.229-.417.008-.171.113-.323.269-.392l27.932-12.42c.141-.063.303-.05.432.034.129.084.207.227.207.381v28.313c0,.162-.086.312-.226.393-.071.041-.149.061-.228.061ZM75.054,150.3l26.472,15.062v-26.833l-26.472,11.771Z"/>
          </g>
        </g>
        <g id="Purple1">
          <g>
            <path class="cls-5" d="M129.912,150.25l-27.932-12.42v28.313l27.932-15.893Z"/>
            <path class="cls-11" d="M101.979,166.597c-.079,0-.158-.021-.228-.061-.14-.081-.226-.231-.226-.393v-28.313c0-.154.078-.297.207-.381.129-.084.29-.096.432-.034l27.932,12.42c.156.07.261.221.269.392.008.171-.08.333-.229.417l-27.932,15.893c-.07.04-.147.059-.225.059ZM102.433,138.529v26.833l26.472-15.062-26.472-11.771Z"/>
          </g>
        </g>
        <g id="Yellow1">
          <g>
            <path class="cls-1" d="M74.055,150.249l27.927-43.827v31.407l-27.927,12.42Z"/>
            <path class="cls-11" d="M74.055,150.678c-.122,0-.242-.052-.326-.149-.123-.144-.139-.351-.037-.511l27.927-43.827c.103-.162.301-.236.482-.182.184.053.31.221.31.412v31.408c0,.17-.1.324-.255.392l-27.927,12.419c-.056.025-.116.037-.174.037ZM101.553,107.895l-26.368,41.381,26.368-11.726v-29.655Z"/>
          </g>
        </g>
        <g id="Green1">
          <g>
            <path class="cls-3" d="M129.907,150.249l-27.927-43.827v31.407l27.927,12.42Z"/>
            <path class="cls-11" d="M129.907,150.678c-.059,0-.119-.012-.174-.037l-27.927-12.419c-.155-.069-.255-.222-.255-.392v-31.408c0-.191.126-.359.31-.412.182-.054.38.02.482.182l27.927,43.827c.102.16.087.367-.037.511-.084.097-.204.149-.326.149ZM102.409,137.55l26.368,11.726-26.368-41.381v29.655Z"/>
          </g>
        </g>
      </g>
    </g>
  </g>
</svg>