<?xml version="1.0" encoding="UTF-8"?>
<svg id="Layer_1" data-name="Layer 1" xmlns="http://www.w3.org/2000/svg" viewBox="0 0 300 300">
  <defs>
    <style>
      .cls-1 {
        fill: #5d6e3c;
      }

      .cls-2 {
        fill: #aeafaa;
      }

      .cls-3 {
        fill: #fff;
      }

      .cls-4 {
        fill: #acd905;
      }

      .cls-5 {
        fill: #f1b82f;
      }
    </style>
  </defs>
  <g>
    <path d="M150,292.5c-78.575,0-142.5-63.925-142.5-142.5S71.425,7.5,150,7.5s142.5,63.925,142.5,142.5-63.925,142.5-142.5,142.5Z"/>
    <path class="cls-5" d="M150,15c36.06,0,69.961,14.042,95.459,39.541s39.541,59.4,39.541,95.459-14.042,69.961-39.541,95.459c-25.498,25.498-59.4,39.541-95.459,39.541s-69.961-14.042-95.459-39.541c-25.498-25.498-39.541-59.4-39.541-95.459s14.042-69.961,39.541-95.459c25.498-25.498,59.4-39.541,95.459-39.541M150,0C67.157,0,0,67.157,0,150s67.157,150,150,150,150-67.157,150-150S232.843,0,150,0h0Z"/>
  </g>
  <g>
    <path class="cls-4" d="M168.372,173.25h-66.185v-97.021h66.185c22.725,0,41.125,18.48,41.125,41.255v14.489c0,22.797-18.4,41.277-41.125,41.277Z"/>
    <path class="cls-2" d="M185.432,221.77h-83.245v-48.521c0-26.788,21.644-48.5,48.347-48.5h34.898c26.703,0,48.347,21.712,48.347,48.5s-21.644,48.521-48.347,48.521Z"/>
    <path class="cls-1" d="M209.498,131.191v.803c0,22.797-18.4,41.255-41.147,41.255h-66.163c0-13.383,5.427-25.508,14.163-34.292,8.757-8.785,20.843-14.207,34.206-14.207h34.876c8.779,0,16.995,2.342,24.065,6.442Z"/>
    <path class="cls-3" d="M102.32,197.695c26.809,0,48.541-21.801,48.541-48.695s-21.733-48.695-48.541-48.695-48.541,21.801-48.541,48.695,21.733,48.695,48.541,48.695Z"/>
    <path class="cls-5" d="M110.082,175.635v9.045l-7.849,4.642-7.633-4.642v-9.045l7.633,4.642,7.849-4.642ZM68.027,144.358l7.633,4.642v15.509l13.146,7.874v9.045l-20.779-12.299v-24.77ZM136.396,144.358v24.814l-20.995,12.299v-9.045l13.146-7.874v-15.509l7.849-4.685ZM115.357,132.081l7.849,4.642v9.023l-13.146,7.874v15.725l-7.633,4.642-7.589-4.642v-15.769l-13.622-7.873v-9.045l7.849-4.642,13.146,7.874,13.146-7.809ZM81.216,152.21l7.632,4.642v9.045l-7.632-4.642v-9.045ZM123.228,152.21v9.045l-7.633,4.642v-9.045l7.633-4.642ZM75.659,124.186l7.849,4.642-7.849,4.642v9.023l-7.633-4.642v-9.023l7.633-4.642ZM128.763,124.186l7.849,4.642v9.045l-7.849,4.62v-9.045l-7.633-4.62,7.633-4.642ZM102.211,124.186l7.849,4.642-7.849,4.642-7.633-4.642,7.633-4.642ZM102.211,108.699l20.995,12.298-7.633,4.642-13.146-7.874-13.405,7.874-7.633-4.642,20.822-12.298Z"/>
  </g>
</svg>