<?xml version="1.0" encoding="UTF-8"?>
<svg id="Layer_1" data-name="Layer 1" xmlns="http://www.w3.org/2000/svg" viewBox="0 0 300 300">
  <defs>
    <style>
      .cls-1 {
        fill: #581888;
      }

      .cls-2 {
        fill: #fff;
      }
    </style>
  </defs>
  <circle class="cls-1" cx="150" cy="150" r="150"/>
  <g>
    <path class="cls-2" d="M132.874,196.83c2.639-11.418-.49-23.402-8.374-32.073l-20.291-23.011c-11.297-12.808-8.505-32.676,5.886-41.876l33.203-21.226c2.144-1.37,4.941-1.12,6.811.606,12.147,11.205,54.409,51.577,52.534,93.27,0,0,.05,64.746-63.712,88.976-9.368,3.561-18.854-5.003-16.401-14.722,8.809-34.902,10.345-49.948,10.345-49.948v.003ZM141.183,97.133c-5.077,3.217-14.915,9.449-23.311,14.771-5.619,3.562-6.751,11.279-2.401,16.312l21.216,24.532c12.157,13.372,16.982,31.855,12.912,49.46l-3.556,15.602c-1.546,6.776,6.452,11.515,11.712,6.974,22.354-19.297,53.697-65.683-11.67-127.194-1.333-1.254-3.353-1.437-4.899-.458h-.002Z"/>
    <path class="cls-2" d="M101.86,90.422l32.142-19.831c2.829-1.603,2.827-4.906.791-6.929l-26.847-25.949c-.527-.524-1.38-.522-1.904.005l-2.535,2.55c-3.245,3.264-3.23,8.539.032,11.786l10.478,9.672c1.781,1.771,1.442,4.741-.692,6.064l-12.526,7.669c-3.912,2.424-5.117,7.563-2.693,11.472l1.894,3.054c.393.633,1.227.828,1.86.435v.002Z"/>
  </g>
</svg>