<?xml version="1.0" encoding="UTF-8"?>
<svg id="Layer_1" data-name="Layer 1" xmlns="http://www.w3.org/2000/svg" xmlns:xlink="http://www.w3.org/1999/xlink" viewBox="0 0 300 300">
  <defs>
    <style>
      .cls-1 {
        fill: url(#linear-gradient);
      }

      .cls-2 {
        fill: #fff;
      }
    </style>
    <linearGradient id="linear-gradient" x1="0" y1="150" x2="300" y2="150" gradientUnits="userSpaceOnUse">
      <stop offset="0" stop-color="#ef8f36"/>
      <stop offset="1" stop-color="#eb582a"/>
    </linearGradient>
  </defs>
  <circle class="cls-1" cx="150" cy="150" r="150"/>
  <g>
    <path class="cls-2" d="M150,127.445c-5.055,0-9.581-2.614-12.109-6.991l-34.181-59.201h92.579l-34.181,59.201c-2.527,4.377-7.054,6.991-12.109,6.991h0Z"/>
    <path class="cls-2" d="M181.639,145.714c-5.055,0-9.582-2.614-12.109-6.991-2.527-4.377-2.527-9.604,0-13.982l34.18-59.199,46.289,80.173h-68.361,0Z"/>
    <path class="cls-2" d="M103.71,238.747l34.181-59.2c2.527-4.377,7.054-6.991,12.109-6.991s9.581,2.614,12.109,6.991l34.181,59.2h-92.579Z"/>
    <path class="cls-2" d="M169.53,175.261c-2.528-4.377-2.528-9.604,0-13.982,2.527-4.377,7.054-6.991,12.109-6.991h68.361l-46.289,80.172-34.18-59.198h0Z"/>
    <path class="cls-2" d="M50,145.714l46.29-80.173,34.179,59.199c2.528,4.377,2.528,9.604,0,13.982-2.527,4.378-7.054,6.991-12.109,6.991H50Z"/>
    <path class="cls-2" d="M50,154.287h68.361c5.055,0,9.582,2.614,12.109,6.991,2.527,4.378,2.527,9.605,0,13.982l-34.179,59.198-46.291-80.171Z"/>
  </g>
</svg>