<?xml version="1.0" encoding="UTF-8"?>
<svg id="Layer_1" data-name="Layer 1" xmlns="http://www.w3.org/2000/svg" viewBox="0 0 300 300">
  <defs>
    <style>
      .cls-1 {
        fill: #ff931e;
      }

      .cls-2 {
        fill: #fff;
      }
    </style>
  </defs>
  <circle class="cls-1" cx="150" cy="150" r="150"/>
  <g id="Layer_1-2" data-name="Layer 1">
    <g id="Layer_1-2" data-name="Layer 1-2">
      <g id="Layer_1-2-2" data-name="Layer 1-2">
        <g>
          <g>
            <path class="cls-2" d="M156.222,113.901l21.766,7.192c5.274,1.758,8.15,7.447,6.392,12.721h0c-1.758,5.274-7.447,8.15-12.721,6.392l-21.766-7.192c-5.274-1.758-8.15-7.447-6.392-12.721h0c1.758-5.274,7.447-8.15,12.721-6.392h0Z"/>
            <path class="cls-2" d="M147.592,139.886l21.766,7.192c5.274,1.758,8.15,7.447,6.392,12.721h0c-1.758,5.274-7.447,8.15-12.721,6.392l-21.766-7.192c-5.274-1.758-8.15-7.447-6.392-12.721h0c1.758-5.274,7.447-8.15,12.721-6.392h0Z"/>
            <path class="cls-2" d="M167.249,88.683l16.876,5.593c5.274,1.758,8.15,7.447,6.392,12.721h0c-1.758,5.274-7.447,8.15-12.721,6.392l-16.876-5.593c-5.274-1.758-8.15-7.447-6.392-12.721h0c1.758-5.274,7.447-8.15,12.721-6.392Z"/>
            <path class="cls-2" d="M180.737,64.295l7.128,2.365c5.274,1.758,8.15,7.447,6.392,12.721h0c-1.758,5.274-7.447,8.15-12.721,6.392l-7.128-2.365c-5.274-1.758-8.15-7.447-6.392-12.721h0c1.758-5.274,7.447-8.15,12.721-6.392Z"/>
            <path class="cls-2" d="M188.92,39.46l7.128,2.365c5.274,1.758,8.15,7.447,6.392,12.721h0c-1.758,5.274-7.447,8.15-12.721,6.392l-7.128-2.365c-5.274-1.758-8.15-7.447-6.392-12.721h0c1.758-5.274,7.447-8.15,12.721-6.392h0Z"/>
            <path class="cls-2" d="M199.116,127.964l-9.557-3.164c-.352-.128-.735-.224-1.087-.288,4.603,2.11,4.539,6.584,2.909,11.506h0c-1.63,4.922-4.251,8.534-9.173,7.511.352.16.703.288,1.055.416l9.557,3.164c5.274,1.758,10.995-1.119,12.721-6.392h0c1.758-5.274-1.119-10.995-6.392-12.721h0l-.032-.032Z"/>
            <path class="cls-2" d="M192.052,155.836l-9.557-3.164c-.352-.128-.735-.224-1.087-.288,4.603,2.11,4.539,6.584,2.909,11.506h0c-1.63,4.922-4.251,8.534-9.173,7.511.352.16.703.288,1.055.416l9.557,3.164c5.274,1.758,10.995-1.119,12.721-6.392h0c1.758-5.274-1.119-10.995-6.392-12.721h0l-.032-.032Z"/>
            <path class="cls-2" d="M205.604,101.244l-9.557-3.164c-.352-.128-.735-.224-1.087-.288,4.603,2.11,4.539,6.584,2.909,11.506h0c-1.63,4.922-4.251,8.534-9.173,7.511.352.16.703.288,1.055.416l9.557,3.164c5.274,1.758,10.995-1.119,12.721-6.392h0c1.758-5.274-1.119-10.995-6.392-12.721h0l-.032-.032Z"/>
            <path class="cls-2" d="M208.129,73.245l-9.557-3.164c-.352-.128-.735-.224-1.087-.288,4.603,2.11,4.539,6.584,2.909,11.506h0c-1.63,4.922-4.251,8.534-9.173,7.511.352.16.703.288,1.055.416l9.557,3.164c5.274,1.758,10.995-1.119,12.721-6.392h0c1.758-5.274-1.119-10.995-6.392-12.721h0l-.032-.032Z"/>
            <path class="cls-2" d="M154.688,76.792l9.557,3.164c.352.128.735.224,1.087.288-4.603-2.11-4.539-6.584-2.909-11.506h0c1.63-4.922,4.251-8.534,9.173-7.511-.352-.16-.703-.288-1.055-.416l-9.557-3.164c-5.274-1.758-10.995,1.119-12.721,6.392h0c-1.758,5.274,1.119,10.995,6.392,12.721h0l.032.032Z"/>
            <path class="cls-2" d="M140.784,101.084l9.557,3.164c.352.128.735.224,1.087.288-4.603-2.11-4.539-6.584-2.909-11.506h0c1.63-4.922,4.251-8.534,9.173-7.511-.352-.16-.703-.288-1.055-.416l-9.557-3.164c-5.274-1.758-10.995,1.119-12.721,6.392h0c-1.758,5.274,1.119,10.995,6.392,12.721h0l.032.032Z"/>
            <path class="cls-2" d="M128.894,126.015l9.557,3.164c.352.128.735.224,1.087.288-4.603-2.11-4.539-6.584-2.909-11.506h0c1.63-4.922,4.251-8.534,9.173-7.511-.352-.16-.703-.288-1.055-.416l-9.557-3.164c-5.274-1.758-10.995,1.119-12.721,6.392h0c-1.758,5.274,1.119,10.995,6.392,12.721h0l.032.032Z"/>
          </g>
          <path class="cls-1" d="M135.35,261.056c-3.516,0-7.447-.575-11.666-1.662-10.068-2.621-16.525-7.415-19.209-14.191-2.365-5.945-1.087-11.698.32-15.31-12.625-16.844-18.73-29.182-19.721-39.665-1.023-10.899,3.612-17.995,8.118-24.867,2.301-3.484,4.667-7.096,6.361-11.379,3.772-9.493-.607-29.278-2.429-32.442.288.479-5.593-9.621-3.42-9.461h7.991c14.063.959,25.027,6.488,32.57,16.493,10.675,14.159,11.922,34.168,11.155,48.199,3.1-2.205,6.616-4.379,10.42-6.424,11.57-6.233,23.109-10.196,31.707-9.812,8.598.384,3.484.16,5.05.447,7.959,1.502,11.826,5.657,13.712,8.854,4.379,7.575,1.598,16.269,1.247,17.228l-2.845,8.214-6.361-5.753c-.767-.639-3.42-2.429-5.753-2.429-3.74,0-6.936,5.753-8.79,15.758-3.068,16.62-11.027,25.57-17.164,30.141-3.1,2.301-6.041,3.772-8.406,4.698,0,4.762-1.087,11.219-5.53,16.333-2.813,3.196-8.055,7.032-17.26,7.032h-.096,0Z"/>
          <path class="cls-2" d="M111.442,229.19s-11.315,18.091,13.648,24.643c24.963,6.552,28.415-10.1,27.008-20.328,0,0,20.648-3.004,25.922-31.643,5.977-32.378,23.972-16.62,23.972-16.62,0,0,5.114-14-10.899-16.652-16.013-2.653-48.391,17.388-54.72,28.383,0,0,11.347-72.427-35.191-79.107,2.173.192,8.662,25.57,3.612,38.259-8.598,21.639-30.332,25.027,6.616,73.098h.032v-.032Z"/>
          <path class="cls-1" d="M131.643,229.541s12.625,6.648,38.739,1.886c26.113-4.762,30.205,1.694,30.205,1.694l-30.205,4.922s-28.99,6.009-38.739-8.534h0v.032Z"/>
          <polygon class="cls-2" points="145.802 168.621 154.048 171.338 144.843 177.954 145.802 168.621"/>
        </g>
      </g>
    </g>
  </g>
</svg>