<?xml version="1.0" encoding="UTF-8"?>
<svg id="Layer_1" data-name="Layer 1" xmlns="http://www.w3.org/2000/svg" xmlns:xlink="http://www.w3.org/1999/xlink" viewBox="0 0 300 300">
  <defs>
    <style>
      .cls-1 {
        fill: url(#linear-gradient);
      }

      .cls-2 {
        fill: #fff;
      }
    </style>
    <linearGradient id="linear-gradient" x1="0" y1="150" x2="300" y2="150" gradientUnits="userSpaceOnUse">
      <stop offset="0" stop-color="#eb1357"/>
      <stop offset="1" stop-color="#db23c8"/>
    </linearGradient>
  </defs>
  <circle class="cls-1" cx="150" cy="150" r="150"/>
  <path class="cls-2" d="M262.275,122.512l-50.865,33.01c40.137-32.185,40.137-66.845,40.137-66.845l-53.266,52.666c35.861-59.568,22.732-84.1,22.732-84.1l-42.388,71.797c-9.303-2.551-18.906-3.901-28.509-3.901h-.675c-9.603,0-19.206,1.275-28.509,3.901l-42.388-71.797s-14.854,22.507,21.006,82.15l-51.39-50.715s-5.252,30.834,37.586,64.894c-.225.375-48.465-31.059-48.465-31.059,0,0-1.2,29.559,41.262,53.341v.75c0,32.185,31.659,65.42,70.971,65.795h.675c39.237-.375,70.971-33.61,70.971-65.795v-.75c42.388-23.707,41.112-53.341,41.112-53.341ZM125.734,209.013s-12.604.825-19.806-6.677c-7.277-7.502-6.377-20.481-6.377-20.481,0,0,12.604-.9,19.806,6.677,7.277,7.577,6.377,20.481,6.377,20.481ZM193.629,202.336c-7.277,7.502-19.806,6.677-19.806,6.677,0,0-.825-12.979,6.452-20.481s19.806-6.677,19.806-6.677c0,0,.675,12.979-6.602,20.481h.15,0Z"/>
</svg>