<?xml version="1.0" encoding="UTF-8"?>
<svg id="Layer_1" data-name="Layer 1" xmlns="http://www.w3.org/2000/svg" viewBox="0 0 300 300">
  <defs>
    <style>
      .cls-1 {
        fill: #80bc00;
      }

      .cls-2 {
        fill: #fec526;
      }
    </style>
  </defs>
  <path class="cls-2" d="M298.699,86.608L210.383-.18,86.567.9-.221,89.216l1.08,123.817,88.315,86.788,123.817-1.08,86.788-88.315-1.08-123.817ZM204.608,278.988l-107.395.937L20.611,204.648l-.937-107.395L94.951,20.652l107.395-.937,76.602,75.277.937,107.395-75.277,76.602Z"/>
  <path class="cls-1" d="M256.055,131.489h-19.408l.468,53.617-44.152,44.93-9.425-24.833,29.363-29.88-.068-7.818h-20.93l-24.174,24.599-35.156.307-25.076-24.642-.307-35.156,24.642-25.076,35.156-.307,24.827,24.397h20.704l-.073-8.407-29.998-29.479,10.551-23.46,14.456,14.206c-.36,1.522-.57,3.102-.57,4.734,0,11.344,9.196,20.539,20.539,20.539s20.539-9.196,20.539-20.539-9.196-20.539-20.539-20.539c-2.487,0-4.86.465-7.067,1.274l-27.422-26.948-88.167.769-61.8,62.888.769,88.167,62.888,61.8,88.167-.77,61.8-62.888-.536-61.486ZM175.396,62.569l-10.895,24.224-31.713.277-9.128-24.05,51.736-.451ZM105.881,70.332l9.425,24.833-21.556,21.936-23.46-10.551,35.591-36.218ZM62.528,124.13l24.224,10.895.266,30.43-24.05,9.128-.44-50.453ZM105.784,228.597l-36.491-35.86,24.833-9.425,22.21,21.825-10.551,23.46ZM123.039,237.081l10.895-24.224,31.848-.278,9.128,24.05-51.871.453Z"/>
</svg>