<?xml version="1.0" encoding="UTF-8"?>
<svg id="Layer_1" data-name="Layer 1" xmlns="http://www.w3.org/2000/svg" viewBox="0 0 300 300">
  <defs>
    <style>
      .cls-1 {
        fill: #a1fea0;
      }
    </style>
  </defs>
  <circle class="cls-1" cx="150" cy="150" r="150"/>
  <g>
    <path d="M101.334,222.478c-19.415,0-31.234-15.742-26.394-35.161l18.609-74.634c4.839-19.415,24.508-35.161,43.928-35.161h101.457c-14.232-18.413-37.096-29.794-65.257-29.794-56.482,0-112.871,45.785-125.949,102.271-13.074,56.487,22.107,102.271,78.594,102.271,28.161,0,56.294-11.381,79.052-29.794h-104.039,0Z"/>
    <path d="M151.959,106.256c-4.856,0-9.773,3.935-10.98,8.791l-5.134,20.585h79.015l-7.163,28.734h-79.015l-5.134,20.585c-1.211,4.856,1.743,8.791,6.599,8.791h102.194c9.356-13.263,16.31-28.092,19.935-43.744,3.625-15.652,3.534-30.481.319-43.744h-100.635,0Z"/>
  </g>
</svg>