<?xml version="1.0" encoding="UTF-8"?>
<svg id="Layer_1" data-name="Layer 1" xmlns="http://www.w3.org/2000/svg" viewBox="0 0 300 300">
  <defs>
    <style>
      .cls-1 {
        fill: #e62058;
      }

      .cls-2 {
        fill: #fff;
      }
    </style>
  </defs>
  <circle class="cls-1" cx="150" cy="150" r="150"/>
  <g>
    <path class="cls-2" d="M193.577,127.587l-88.815-.069c-24.217,0-44.348,19.1-44.983,43.648-.02.653.526,1.197,1.18,1.197l88.815.059c24.217.01,44.348-19.09,44.982-43.629.02-.653-.525-1.197-1.18-1.197v-.01Z"/>
    <path class="cls-2" d="M238.599,60.331l-133.837-.069c-24.217,0-44.348,19.099-44.982,43.649-.02.653.526,1.197,1.18,1.197l133.837.059c24.217.01,44.348-19.09,44.982-43.629.02-.653-.525-1.197-1.18-1.197v-.01Z"/>
    <path class="cls-2" d="M82.29,239.378c12.433,0,22.511-10.053,22.511-22.453s-10.079-22.453-22.511-22.453-22.511,10.052-22.511,22.453,10.079,22.453,22.511,22.453Z"/>
  </g>
</svg>