<?xml version="1.0" encoding="UTF-8"?>
<svg id="Layer_1" data-name="Layer 1" xmlns="http://www.w3.org/2000/svg" xmlns:xlink="http://www.w3.org/1999/xlink" viewBox="0 0 300 300">
  <defs>
    <style>
      .cls-1 {
        fill: url(#linear-gradient);
      }

      .cls-2 {
        fill: #fff;
      }
    </style>
    <linearGradient id="linear-gradient" x1="-.221" y1="149.82" x2="299.779" y2="149.82" gradientUnits="userSpaceOnUse">
      <stop offset="0" stop-color="#6d6d6d"/>
      <stop offset="1" stop-color="#d0ccc8"/>
    </linearGradient>
  </defs>
  <g>
    <circle cx="149.779" cy="149.82" r="150"/>
    <path class="cls-1" d="M149.779,14.82c36.06,0,69.961,14.042,95.459,39.541s39.541,59.4,39.541,95.459-14.042,69.961-39.541,95.459c-25.498,25.498-59.4,39.541-95.459,39.541s-69.961-14.042-95.459-39.541c-25.498-25.498-39.541-59.4-39.541-95.459s14.042-69.961,39.541-95.459c25.498-25.498,59.4-39.541,95.459-39.541M149.779-.18C66.936-.18-.221,66.977-.221,149.82s67.157,150,150,150,150-67.157,150-150S232.622-.18,149.779-.18h0Z"/>
  </g>
  <g>
    <path class="cls-2" d="M249.008,102.188h-27.363c-1.8-5.805-5.006-11.29-9.618-15.913-4.527-4.527-9.98-7.807-15.913-9.639v-27.342h-19.439v26.49c-6.859,1.491-13.133,4.889-18.192,9.948l-12.952,12.952c-3.792,3.792-3.792,9.948,0,13.751,3.792,3.792,9.948,3.792,13.751,0l12.952-12.952c3.366-3.366,7.914-5.177,12.782-5.123,4.974.064,9.682,2.077,13.272,5.667,7.328,7.328,7.573,19.023.543,26.053l-27.235,27.235c-7.03,7.03-18.725,6.785-26.053-.543-3.792-3.792-9.948-3.792-13.751,0-3.792,3.792-3.792,9.948,0,13.751,7.552,7.552,17.447,11.344,27.278,11.344,9.565,0,19.066-3.589,26.277-10.8l27.235-27.235c5.166-5.166,8.457-11.503,9.927-18.192h26.522v-19.439l-.021-.011Z"/>
    <path class="cls-2" d="M138.756,186.152l-12.952,12.952c-7.03,7.03-18.714,6.785-26.053-.543-7.328-7.328-7.573-19.023-.543-26.053l27.235-27.235c7.03-7.03,18.725-6.785,26.053.543,3.792,3.792,9.948,3.792,13.751,0,3.792-3.792,3.792-9.948,0-13.751-14.912-14.912-38.931-15.157-53.544-.543l-27.235,27.235c-5.166,5.166-8.457,11.503-9.927,18.192h-26.522v19.439h27.363c1.8,5.805,5.006,11.29,9.618,15.913,4.612,4.612,10.097,7.818,15.913,9.618v27.374h19.439v-26.522c6.7-1.459,13.037-4.761,18.192-9.927l12.952-12.952c3.792-3.792,3.792-9.948,0-13.751-3.792-3.792-9.948-3.792-13.751,0l.011.011Z"/>
  </g>
</svg>