<?xml version="1.0" encoding="UTF-8"?>
<svg id="Layer_1" data-name="Layer 1" xmlns="http://www.w3.org/2000/svg" xmlns:xlink="http://www.w3.org/1999/xlink" viewBox="0 0 300 300">
  <defs>
    <style>
      .cls-1 {
        fill: none;
      }

      .cls-2 {
        fill: url(#linear-gradient-2);
      }

      .cls-3 {
        fill: url(#linear-gradient);
      }

      .cls-4 {
        fill: #fff;
      }

      .cls-5 {
        fill: #ffa902;
      }
    </style>
    <linearGradient id="linear-gradient" x1="78.573" y1="1421.149" x2="124.952" y2="1378.262" gradientTransform="translate(0 -1217.895)" gradientUnits="userSpaceOnUse">
      <stop offset="0" stop-color="#fe0"/>
      <stop offset=".988" stop-color="#ffa902"/>
    </linearGradient>
    <linearGradient id="linear-gradient-2" x1="190.469" y1="1365.633" x2="205.397" y2="1350.45" gradientTransform="translate(0 -1217.895)" gradientUnits="userSpaceOnUse">
      <stop offset="0" stop-color="#c6c6c6"/>
      <stop offset=".988" stop-color="#fff"/>
    </linearGradient>
  </defs>
  <g>
    <path d="M150,290c-77.196,0-140-62.804-140-140S72.804,10,150,10s140,62.804,140,140-62.804,140-140,140Z"/>
    <path class="cls-5" d="M150,20c34.724,0,67.37,13.522,91.924,38.076s38.076,57.2,38.076,91.924-13.522,67.37-38.076,91.924-57.2,38.076-91.924,38.076-67.37-13.522-91.924-38.076-38.076-57.2-38.076-91.924,13.522-67.37,38.076-91.924,57.2-38.076,91.924-38.076M150,0C67.157,0,0,67.157,0,150s67.157,150,150,150,150-67.157,150-150S232.843,0,150,0h0Z"/>
  </g>
  <g>
    <polygon class="cls-4" points="202.106 128.049 206.541 126.866 225.61 132.631 222.21 132.336 202.106 128.049"/>
    <polyline class="cls-3" points="109.128 146.97 74.686 181.264 50 206.098 82.225 192.498 151.848 163.526 135.44 155.839 107.058 167.812 123.171 151.552"/>
    <g>
      <polygon class="cls-1" points="202.106 128.049 181.412 107.206 149.926 107.206 138.692 107.206 118.588 107.206 97.746 128.049 192.942 167.812 167.221 142.092 166.482 141.353 156.135 141.353 124.353 128.049 152.735 128.049 153.326 128.049 171.951 128.049 180.82 136.918 202.106 128.049"/>
      <polygon class="cls-2" points="180.82 136.918 184.959 142.535 191.02 147.118 212.306 138.101 225.61 132.631 202.106 128.049 180.82 136.918"/>
      <polygon class="cls-4" points="225.166 181.264 191.02 147.118 185.994 142.092 180.82 136.918 171.951 128.049 153.326 128.049 152.735 128.049 124.353 128.049 156.135 141.353 166.482 141.353 167.221 142.092 192.942 167.812 97.746 128.049 118.588 107.206 138.692 107.206 149.926 107.206 181.412 107.206 202.106 128.049 202.106 128.049 225.61 132.631 186.881 93.902 186.881 93.902 168.108 93.902 149.926 93.902 138.692 93.902 131.892 93.902 112.971 93.902 99.815 107.206 84.59 122.432 74.39 132.631 87.694 138.101 217.627 192.498 250 206.098 225.166 181.264"/>
    </g>
  </g>
</svg>