<?xml version="1.0" encoding="UTF-8"?>
<svg id="Layer_1" data-name="Layer 1" xmlns="http://www.w3.org/2000/svg" viewBox="0 0 300 300">
  <defs>
    <style>
      .cls-1 {
        fill: #85878a;
      }

      .cls-2 {
        fill: #9e7e36;
      }

      .cls-3 {
        fill: #ababab;
      }

      .cls-4 {
        fill: #ebb841;
      }
    </style>
  </defs>
  <g>
    <path d="M150,292.5c-78.575,0-142.5-63.925-142.5-142.5S71.425,7.5,150,7.5s142.5,63.925,142.5,142.5-63.925,142.5-142.5,142.5Z"/>
    <path class="cls-4" d="M150,15c36.06,0,69.961,14.042,95.459,39.541,25.498,25.498,39.541,59.4,39.541,95.459s-14.042,69.961-39.541,95.459c-25.498,25.498-59.4,39.541-95.459,39.541s-69.961-14.042-95.459-39.541c-25.498-25.498-39.541-59.4-39.541-95.459s14.042-69.961,39.541-95.459c25.498-25.498,59.4-39.541,95.459-39.541M150,0C67.157,0,0,67.157,0,150s67.157,150,150,150,150-67.157,150-150S232.843,0,150,0h0Z"/>
  </g>
  <g>
    <path class="cls-4" d="M177.416,179.49v-108.85c0-6.381-5.524-11.472-12.05-10.752-5.521.609-9.589,5.482-9.589,11.036v56.683c0,5.327-4.318,9.645-9.645,9.645h-41.227c-5.479,0-9.921-4.442-9.921-9.921v-30.717c0-6.439-5.22-11.658-11.658-11.658h0c-6.439,0-11.658,5.22-11.658,11.658v131.547c0,6.439,5.22,11.658,11.658,11.658h0c6.439,0,11.658-5.22,11.658-11.658v-62.104c0-3.957,3.208-7.165,7.165-7.165h43.983c5.327,0,9.645,4.318,9.645,9.645v10.817s21.64.135,21.64.135Z"/>
    <rect class="cls-2" x="155.776" y="91.087" width="21.64" height="8.142"/>
    <rect class="cls-2" x="126.896" y="143.999" width="21.64" height="8.142" transform="translate(-10.355 285.786) rotate(-90)"/>
    <path class="cls-3" d="M207.166,70.878h-72.666c-11.447,0-20.726,9.28-20.726,20.726v74.605c0,11.447,9.279,20.726,20.726,20.726h72.666c11.447,0,20.726-9.279,20.726-20.726v-74.605c0-11.447-9.279-20.726-20.726-20.726ZM208.021,153.218c0,7.46-6.048,13.508-13.508,13.508h-47.36c-7.46,0-13.508-6.048-13.508-13.508v-48.623c0-7.46,6.048-13.508,13.508-13.508h47.36c7.46,0,13.508,6.048,13.508,13.508v48.623Z"/>
    <path class="cls-4" d="M177.416,149.888v60.451c0,6.381-5.524,11.472-12.05,10.752-5.521-.609-9.589-5.482-9.589-11.036v-60.302s21.64.135,21.64.135Z"/>
    <rect class="cls-1" x="171.38" y="172.76" width="20.209" height="8.142" transform="translate(4.654 358.316) rotate(-90)"/>
  </g>
</svg>