<?xml version="1.0" encoding="UTF-8"?>
<svg id="Layer_1" data-name="Layer 1" xmlns="http://www.w3.org/2000/svg" viewBox="0 0 300 300">
  <defs>
    <style>
      .cls-1 {
        fill-rule: evenodd;
      }

      .cls-1, .cls-2 {
        fill: #fff;
      }

      .cls-3 {
        fill: #53afa8;
      }
    </style>
  </defs>
  <circle class="cls-3" cx="150" cy="150" r="150"/>
  <g>
    <path class="cls-1" d="M143.525,66.746c-25.012,0-46.682,17.004-52.169,40.935-4.612,20.116,10.987,39.237,32.012,39.237h41.472c.546,0,.399.359.208.831-.272.667-.429,1.477-1.352,1.477h-45.063c-21.677,0-40.474,14.7-45.297,35.425l-11.178,46.945c-.252,1.055.804,1.956,1.834,1.565,17.619-6.683,30.722-21.487,34.993-39.533l.727-3.071c2.015-8.658,9.866-14.799,18.922-14.799h45.447c13.053,0,23.899-10.958,27.451-21.224,2.372-6.855,6.987-14.488,6.144-21.836-.649-6.904-6.572-12.311-13.782-12.311h-60.525c-3.689,0-6.426-3.354-5.616-6.884,2.711-11.824,13.417-20.224,25.774-20.224h71.312c12.644,0,24.085-7.356,29.126-18.727l2.028-4.577c.675-1.524-.463-3.227-2.158-3.227h-100.309ZM225.245,71.361c.744,0,1.304.675,1.016,1.347-1.109,2.584-3.715,4.397-6.753,4.397s-5.642-1.814-6.752-4.397c-.288-.672.273-1.347,1.016-1.347h11.473Z"/>
    <path class="cls-2" d="M245.278,85.541c-.703,0-1.091-.818-.66-1.364,1.066-1.351,2.028-2.785,2.873-4.289.432-.768,1.242-1.268,2.136-1.268h4.823c2.184,0,4.278-.851,5.822-2.365l4.301-4.218c.919-.901,2.408-.901,3.327,0l1.664,1.631c.918.901.918,2.362,0,3.263l-4.42,4.335c-.458.451-.458,1.181,0,1.631l4.42,4.335c.918.901.918,2.362,0,3.263l-1.664,1.631c-.919.901-2.408.901-3.327,0l-4.301-4.218c-1.544-1.515-3.638-2.365-5.822-2.365h-9.172Z"/>
  </g>
</svg>