<?xml version="1.0" encoding="UTF-8"?>
<svg id="Layer_1" data-name="Layer 1" xmlns="http://www.w3.org/2000/svg" viewBox="0 0 300 300">
  <defs>
    <style>
      .cls-1 {
        fill: #7132f5;
        fill-rule: evenodd;
      }

      .cls-2 {
        fill: #fff;
      }
    </style>
  </defs>
  <circle class="cls-2" cx="150" cy="150" r="150"/>
  <path class="cls-1" d="M300,150C300,67.157,232.843,0,150,0,67.157,0,0,67.157,0,150c0,82.843,67.157,150,150,150s150-67.157,150-150ZM171.409,262.262c0,10.176-8.352,18.448-20.207,18.685-.328.003-.657.004-.986.005h-.432c-72.224-.117-130.736-58.701-130.736-130.952S77.677,19.048,150,19.048c.39,0,.78.002,1.169.005,13.378.238,20.24,8.509,20.24,18.685,0,10.356-9.154,17.977-18.854,17.977-9.698,0-10.175,0-19.459.744-9.284.744-18.884,8.365-18.884,18.69,0,10.387,8.438,18.751,18.884,18.751h82.336c10.416,0,18.853,8.365,18.853,18.69s-8.438,18.69-18.853,18.69h-126.818c-10.446,0-18.884,8.395-18.884,18.751s8.438,18.69,18.884,18.69h63.942c10.416,0,18.853,8.365,18.853,18.721s-8.438,18.69-18.853,18.69h-19.459c-10.446,0-18.884,8.365-18.884,18.69s8.648,17.915,18.884,18.69c.807.061,1.545.117,2.225.169,3.603.274,5.571.425,7.542.507,2.374.099,4.752.099,9.994.099,10.415,0,18.552,7.651,18.552,17.977Z"/>
</svg>