<?xml version="1.0" encoding="UTF-8"?>
<svg id="Layer_1" xmlns="http://www.w3.org/2000/svg" xmlns:xlink="http://www.w3.org/1999/xlink" version="1.1" viewBox="0 0 291.6 291.6">
  <!-- Generator: Adobe Illustrator 29.7.1, SVG Export Plug-In . SVG Version: 2.1.1 Build 8)  -->
  <defs>
    <style>
      .st0 {
        fill: #909090;
      }

      .st1 {
        fill: url(#linear-gradient2);
      }

      .st2 {
        fill: url(#linear-gradient1);
      }

      .st3 {
        fill: url(#linear-gradient9);
      }

      .st4 {
        fill: url(#linear-gradient3);
      }

      .st5 {
        fill: url(#linear-gradient6);
      }

      .st6 {
        fill: url(#linear-gradient8);
      }

      .st7 {
        fill: url(#linear-gradient7);
      }

      .st8 {
        fill: url(#linear-gradient5);
      }

      .st9 {
        fill: url(#linear-gradient4);
      }

      .st10 {
        fill: url(#linear-gradient11);
      }

      .st11 {
        fill: url(#linear-gradient10);
      }

      .st12 {
        fill: url(#linear-gradient);
      }

      .st13 {
        fill: #80ffea;
      }

      .st14 {
        fill: none;
        stroke: #80ffea;
        stroke-linecap: round;
        stroke-linejoin: round;
        stroke-width: 1.58px;
      }
    </style>
    <linearGradient id="linear-gradient" x1="-1546.7" y1="864.34" x2="-1538.19" y2="864.34" gradientTransform="translate(23352.21 13259.38) scale(15.06 -15.06)" gradientUnits="userSpaceOnUse">
      <stop offset="0" stop-color="#454545" stop-opacity="0"/>
      <stop offset="1" stop-color="#454545"/>
    </linearGradient>
    <linearGradient id="linear-gradient1" x1="242.5" y1="-1171.85" x2="242.5" y2="-1267.11" gradientTransform="translate(0 -1078.79) scale(1 -1)" gradientUnits="userSpaceOnUse">
      <stop offset="0" stop-color="#454545"/>
      <stop offset="1" stop-color="#454545" stop-opacity="0"/>
    </linearGradient>
    <linearGradient id="linear-gradient2" x1="91.12" y1="-1128.7" x2="186.38" y2="-1128.7" gradientTransform="translate(0 -1078.79) scale(1 -1)" gradientUnits="userSpaceOnUse">
      <stop offset="0" stop-color="#454545"/>
      <stop offset="1" stop-color="#454545" stop-opacity="0"/>
    </linearGradient>
    <linearGradient id="linear-gradient3" x1="50.05" y1="-1277.29" x2="50.05" y2="-1182.03" gradientTransform="translate(0 -1078.79) scale(1 -1)" gradientUnits="userSpaceOnUse">
      <stop offset="0" stop-color="#454545"/>
      <stop offset="1" stop-color="#454545" stop-opacity="0"/>
    </linearGradient>
    <linearGradient id="linear-gradient4" x1="165.9" y1="-1282.35" x2="180.58" y2="-1297.5" gradientTransform="translate(0 -1078.79) scale(1 -1)" gradientUnits="userSpaceOnUse">
      <stop offset="0" stop-color="#454545"/>
      <stop offset="1" stop-color="#909090"/>
    </linearGradient>
    <linearGradient id="linear-gradient5" x1="220.99" y1="-1175.71" x2="208.13" y2="-1209.41" gradientTransform="translate(0 -1078.79) scale(1 -1)" gradientUnits="userSpaceOnUse">
      <stop offset="0" stop-color="#454545"/>
      <stop offset="1" stop-color="#909090"/>
    </linearGradient>
    <linearGradient id="linear-gradient6" x1="96.55" y1="-1141.37" x2="136.39" y2="-1171.94" gradientTransform="translate(0 -1078.79) scale(1 -1)" gradientUnits="userSpaceOnUse">
      <stop offset="0" stop-color="#454545"/>
      <stop offset="1" stop-color="#909090"/>
    </linearGradient>
    <linearGradient id="linear-gradient7" x1="189.05" y1="-1232.34" x2="168.9" y2="-1256.66" gradientTransform="translate(0 -1078.79) scale(1 -1)" gradientUnits="userSpaceOnUse">
      <stop offset="0" stop-color="#454545"/>
      <stop offset="1" stop-color="#909090"/>
    </linearGradient>
    <linearGradient id="linear-gradient8" x1="161.41" y1="-1181.58" x2="172.87" y2="-1196.17" gradientTransform="translate(0 -1078.79) scale(1 -1)" gradientUnits="userSpaceOnUse">
      <stop offset="0" stop-color="#454545"/>
      <stop offset="1" stop-color="#909090"/>
    </linearGradient>
    <linearGradient id="linear-gradient9" x1="88.81" y1="-1240.91" x2="73.06" y2="-1259.9" gradientTransform="translate(0 -1078.79) scale(1 -1)" gradientUnits="userSpaceOnUse">
      <stop offset="0" stop-color="#454545"/>
      <stop offset="1" stop-color="#909090"/>
    </linearGradient>
    <linearGradient id="linear-gradient10" x1="85.48" y1="-1230.75" x2="116.05" y2="-1198.1" gradientTransform="translate(0 -1078.79) scale(1 -1)" gradientUnits="userSpaceOnUse">
      <stop offset="0" stop-color="#454545"/>
      <stop offset="1" stop-color="#909090"/>
    </linearGradient>
    <linearGradient id="linear-gradient11" x1="149.27" y1="-1284.6" x2="120.09" y2="-1253.68" gradientTransform="translate(0 -1078.79) scale(1 -1)" gradientUnits="userSpaceOnUse">
      <stop offset="0" stop-color="#454545"/>
      <stop offset="1" stop-color="#909090"/>
    </linearGradient>
  </defs>
  <rect class="st13" x="122.93" y="122.25" width="42.92" height="46.82" transform="translate(-60.71 144.76) rotate(-45)"/>
  <path class="st0" d="M291.59,145.8c0-48.34-33.8-76.34-58.23-86.61h0C226.5,43.4,202.48,0,145.8,0c-48.34,0-76.35,33.8-86.61,58.23C43.41,65.08,0,89.08,0,145.8c0,48.34,33.8,76.35,58.23,86.61h0c6.86,15.79,30.88,59.19,87.57,59.19,48.34,0,76.35-33.8,86.61-58.23,15.77-6.85,59.19-30.85,59.19-87.56h-.01ZM145.46,173.31l-14.08-12.37c-4.69-4.77-10.95-10.9-14.76-15.07l15.81-16.42c4.36-4.26,9.89-8.6,13.72-12.07l6.68,6.48c7.55,7.72,14.07,14.98,19.83,21.38l-6.4,8.46c-6.98,7.22-14.97,14.16-20.81,19.62h0Z"/>
  <path class="st12" d="M58.96,232.72s21.24,6.73,42.61,6.02c27.79-.93,43.54-15.98,43.54-15.98,0,0,14.13,9.03,21.08,11.35s20.84,2.78,20.84,2.78c0,0-18.25,23.77-56.51,25.01-50.02,1.62-71.56-29.18-71.56-29.18h0Z"/>
  <path class="st2" d="M232.86,233.44s6.73-21.24,6.02-42.61c-.93-27.79-15.98-43.54-15.98-43.54,0,0,9.03-14.13,11.35-21.08s2.78-20.84,2.78-20.84c0,0,23.77,18.25,25.01,56.51,1.62,50.02-29.18,71.56-29.18,71.56h0Z"/>
  <path class="st1" d="M231.5,59.55s-21.24-6.73-42.61-6.02c-27.79.93-43.54,15.98-43.54,15.98,0,0-14.13-9.03-21.08-11.35s-20.84-2.78-20.84-2.78c0,0,18.25-23.77,56.51-25.01,50.02-1.62,71.56,29.18,71.56,29.18Z"/>
  <path class="st4" d="M59.69,58.12s-6.73,21.24-6.02,42.61c.93,27.79,15.98,43.54,15.98,43.54,0,0-9.03,14.13-11.35,21.08s-2.78,20.84-2.78,20.84c0,0-23.77-18.25-25.01-56.51-1.62-50.02,29.18-71.56,29.18-71.56Z"/>
  <path class="st9" d="M145.81,222.53s0,3.94,13.2,8.11,28.14,5.91,28.14,5.91c0,0,8.76-7.2,12.85-16.33,4.52-10.07,3.47-18.41,3.47-18.41,0,0-8.57.81-15.05-.58-4.55-.98-11.58-3.71-11.58-3.71l-31.03,25.01h0Z"/>
  <path class="st8" d="M201.04,88.55s1.04,14.59-4.17,25.36c-5.21,10.77-7.99,13.2-7.99,13.2l26.4,28.14s13.9-15.29,17.37-28.83c3.47-13.55,4.17-21.89,4.17-21.89,0,0-5.91-7.3-17.02-11.12-11.12-3.82-18.76-4.86-18.76-4.86h0Z"/>
  <path class="st5" d="M115.59,94.11l31.26-26.05s-7.64-6.6-20.15-10.07-21.89-3.82-21.89-3.82c0,0-10.07,7.64-12.51,17.72-2.43,10.07-4.17,17.37-4.17,17.37,0,0,7.3.69,12.85,1.39,5.56.69,14.59,3.47,14.59,3.47h.02Z"/>
  <path class="st0" d="M68.34,145.52l25.71,30.92s-3.13,6.95-3.47,12.51c-.35,5.56-1.04,13.9-1.04,13.9,0,0-9.38-1.04-17.72-4.52-8.34-3.47-18.06-12.16-18.06-12.16,0,0,1.04-17.02,3.82-22.58s10.77-18.06,10.77-18.06h0Z"/>
  <path class="st7" d="M172.91,146.56s10.42,11.12,13.9,14.59,11.12,14.59,11.12,14.59l-21.08,21.77s-15.75-9.26-19.22-12.04-12.51-11.81-12.51-11.81l27.79-27.1Z"/>
  <path class="st6" d="M145.81,115.3s9.03-8.34,13.9-11.81c4.86-3.47,15.29-9.73,15.29-9.73l20.84,20.5s-6.25,11.81-11.46,18.41-10.42,12.16-10.42,12.16l-28.14-29.53h0Z"/>
  <path class="st3" d="M68.34,145.52l25.36,28.83s-2.55,6.95-2.55,12.51-.93,14.82-.93,14.82c0,0-13.9-2.32-22.7-6.48-8.8-4.17-14.82-8.8-14.82-8.8,0,0,1.85-20.84,6.02-26.86s9.61-14.01,9.61-14.01h.01Z"/>
  <path class="st11" d="M93.01,115.53s7.87,12.04,12.04,15.75c4.17,3.71,10.19,12.97,10.19,12.97l29.64-27.33s-9.73-9.26-12.97-12.51c-3.24-3.24-17.14-11.58-17.14-11.58l-21.77,22.7h.01Z"/>
  <path class="st10" d="M116.28,198.32s7.99-7.64,15.29-13.2c7.3-5.56,13.55-11.46,13.55-11.46l-18.76-17.37-26.75,24.66s16.67,17.37,16.67,17.37Z"/>
  <path class="st14" d="M200.04,215.71c2.31-7.58,6.53-30.77-5.21-45.6l-21.41-24.04"/>
  <path class="st14" d="M121.48,194.83c-14.83,11.74-38.02,7.52-45.6,5.21"/>
  <path class="st14" d="M58.23,232.41l7.01,2.55c15,4.57,54.59,10.31,81.04-12.48"/>
  <path class="st14" d="M222.48,146.28c22.79,26.45,17.05,65.06,12.48,80.06"/>
  <path class="st14" d="M52.98,105.45c-1.71-16.57,1.14-31.96,3.65-40.2.67-2.21,1.53-4.57,2.56-7.01"/>
  <path class="st14" d="M145.31,222.48s41.92-27.04,74.09-71.81c17.45-24.29,17.46-43.87,17.35-46.3-10.17-9.19-20.83-12.76-21.03-12.82-2.87-.87-7.97-2.02-14.01-2.47,0,.03,1.14,23.44-14.74,41.92-34.05,39.63-65.48,63.82-65.48,63.82"/>
  <path class="st14" d="M225.17,96.01s2.31,25.61-16.15,48.11c-34.41,41.82-71.66,70.99-71.66,70.99"/>
  <path class="st14" d="M126.26,206.62l3.16-2.57s35.71-25.16,69.23-66.48c16.81-20.79,15.51-43.42,15.03-46.57"/>
  <path class="st14" d="M69.11,145.31c-22.79-26.45-17.05-65.06-12.48-80.06.67-2.22,1.52-4.57,2.55-7.01"/>
  <path class="st14" d="M91.55,75.88c-2.31,7.58-6.53,30.77,5.21,45.6"/>
  <path class="st14" d="M170.11,96.76c14.83-11.74,38.02-7.52,45.6-5.21"/>
  <path class="st14" d="M233.36,59.18c-2.45-1.03-4.8-1.88-7.01-2.55-15-4.57-53.61-10.31-80.06,12.48"/>
  <path class="st14" d="M238.61,186.14c1.71,16.57-1.14,31.96-3.65,40.2-.67,2.21-1.53,4.57-2.56,7.01"/>
  <path class="st14" d="M69.11,145.31s28.89,39.49,71.81,74.09c24.51,19.75,46.29,17.35,46.3,17.35,9.19-10.17,12.76-20.83,12.83-21.03.87-2.87,2.02-7.97,2.47-14.01-.03,0-23.44,2.46-41.92-13.43-39.63-34.05-63.82-66.8-63.82-66.8"/>
  <path class="st14" d="M195.59,225.17s-25.61,2.31-48.11-16.15c-41.82-34.41-69.94-72.78-69.94-72.78"/>
  <path class="st14" d="M200.6,213.68c-3.15.48-26.08,2.15-46.57-15.03-40.73-34.23-69.28-73.24-69.28-73.24"/>
  <path class="st14" d="M146.29,69.11s-41.01,27.71-74.09,71.81c-20.28,27.04-17.35,44.43-17.35,46.3,10.17,9.19,20.83,12.76,21.03,12.83,2.87.87,7.97,2.02,14.01,2.47,0-.03-1.18-24.91,14.7-43.4,34.05-39.64,65.52-62.35,65.52-62.35"/>
  <path class="st14" d="M66.42,195.59s-1.92-25.29,16.15-48.11c33.68-42.42,71.66-70.99,71.66-70.99"/>
  <path class="st14" d="M77.92,200.6c-.48-3.15-1.42-25.49,15.03-46.57,32.08-41.13,73.01-68.31,73.01-68.31"/>
  <path class="st14" d="M173.42,146.08c4.44-4.74,8.98-9.76,13.54-15.07,4.09-4.77,7.83-11.17,9.84-16.11-12.11-13.2-27.58-27.75-46.13-42.7-24.51-19.75-46.29-17.35-46.3-17.35-9.19,10.17-12.76,20.83-12.82,21.03-.87,2.87-2.02,7.97-2.47,14.01.03,0,23.44-2.46,41.92,13.43,18.07,15.52,31.59,30.76,42.41,42.76h.01Z"/>
  <path class="st14" d="M96.01,66.42s25.61-2.31,48.11,16.15c18.48,15.21,59.75,59.76,71.46,72.62"/>
  <path class="st14" d="M90.99,77.92c3.15-.48,26.08-2.15,46.57,15.03,18.14,15.25,59.55,59.78,70.8,72.17"/>
  <path class="st14" d="M196.8,114.9l25.68,31.39"/>
</svg>