<?xml version="1.0" encoding="UTF-8"?>
<svg id="Layer_1" data-name="Layer 1" xmlns="http://www.w3.org/2000/svg" viewBox="0 0 300 300">
  <defs>
    <style>
      .cls-1 {
        fill: #64b3ae;
      }

      .cls-2 {
        fill: #fff;
      }
    </style>
  </defs>
  <circle class="cls-1" cx="150" cy="150" r="150"/>
  <g>
    <path class="cls-2" d="M149.746,262.32l.015-38.286c-3.857,0-7.745-.308-11.55-.916l-5.939,37.82c5.76.916,11.64,1.381,17.482,1.381h-.008ZM167.22,260.954c5.775-.916,11.513-2.29,17.064-4.099l-11.714-36.424c-3.656,1.194-7.447,2.102-11.259,2.703l5.909,37.82ZM115.199,256.833l11.744-36.417c-3.664-1.194-7.253-2.695-10.677-4.452l-17.296,34.104c5.201,2.672,10.662,4.947,16.229,6.764ZM200.506,250.114c5.208-2.665,10.245-5.773,14.975-9.234l-22.392-30.959c-3.111,2.282-6.424,4.324-9.849,6.073l17.266,34.119ZM84.002,240.82l22.414-30.944c-3.096-2.267-6.051-4.819-8.797-7.575l-26.929,27.055.022.023c4.134,4.159,8.603,8.01,13.289,11.441ZM228.614,229.612l.231-.24c4.119-4.144,7.939-8.633,11.356-13.34l-30.749-22.558c-2.253,3.108-4.783,6.08-7.514,8.836l-.381.39,12.938,12.289,14.117,14.624ZM59.304,215.957l30.764-22.536c-2.268-3.13-4.298-6.463-6.044-9.909l-33.905,17.379c2.649,5.233,5.738,10.3,9.185,15.059v.008ZM249.402,200.965c2.656-5.232,4.917-10.727,6.73-16.328l-36.196-11.824c-1.186,3.686-2.679,7.297-4.425,10.743l33.89,17.409ZM43.411,184.555l36.204-11.794c-1.187-3.678-2.089-7.492-2.694-11.328l-37.591,5.961c.91,5.81,2.283,11.583,4.081,17.169v-.008ZM260.221,167.477c.91-5.795,1.373-11.711,1.38-17.581l-38.054-.023c0,3.881-.306,7.792-.91,11.628l37.584,5.976ZM76.018,149.813c0-3.881.306-7.8.903-11.628l-37.591-5.961c-.91,5.795-1.365,11.711-1.373,17.582h38.054l.007.008ZM222.652,138.244l37.591-5.938c-.903-5.81-2.276-11.583-4.066-17.169l-36.211,11.771c1.187,3.686,2.089,7.492,2.686,11.328v.008ZM79.615,126.864c1.186-3.686,2.679-7.304,4.417-10.75l-33.905-17.386c-2.649,5.232-4.91,10.727-6.715,16.328l36.196,11.809h.008ZM215.556,116.166l33.92-17.356c-2.649-5.24-5.738-10.307-9.178-15.067l-30.779,22.521c2.261,3.131,4.29,6.464,6.036,9.909v-.008ZM90.083,106.204c2.261-3.123,4.798-6.111,7.544-8.866l.074-.075-26.906-27.07-.074.075c-4.134,4.159-7.969,8.671-11.394,13.393l30.757,22.544ZM202.073,97.474l8.126-8.34,18.706-18.813-.06-.06c-4.111-4.136-8.566-7.972-13.237-11.403l-22.43,30.929c3.089,2.267,6.036,4.805,8.76,7.552l.134.135ZM106.506,89.704c3.111-2.275,6.424-4.317,9.849-6.066l-17.244-34.127c-5.208,2.665-10.245,5.765-14.975,9.226l22.37,30.966ZM183.337,83.698l17.318-34.089c-5.201-2.672-10.655-4.955-16.221-6.771l-11.767,36.409c3.664,1.201,7.253,2.695,10.677,4.459l-.007-.008ZM127.04,79.202c3.664-1.186,7.454-2.095,11.259-2.695l-5.887-37.828c-5.768.908-11.513,2.282-17.065,4.091l11.692,36.432ZM161.408,76.529l5.954-37.82c-5.76-.916-11.64-1.389-17.475-1.389l-.037,38.286c3.858,0,7.745.315,11.558.923Z"/>
    <path class="cls-2" d="M149.768,225.046v-38.479c-3.214,0-6.421-.422-9.523-1.245l-9.93,37.173c6.338,1.69,12.88,2.55,19.453,2.55ZM169.22,222.496c6.361-1.698,12.48-4.225,18.17-7.515l-19.256-33.318c-2.769,1.6-5.742,2.829-8.836,3.652l9.923,37.181ZM112.138,214.974l19.264-33.311c-2.762-1.6-5.32-3.569-7.614-5.855l-.354-.347-12.156,12.796-14.918,14.539.219.211c4.663,4.663,9.9,8.684,15.567,11.966h-.008ZM202.957,203.023h.008c4.655-4.67,8.677-9.899,11.952-15.558l-33.306-19.269c-1.6,2.761-3.569,5.319-5.856,7.605l27.202,27.222ZM84.574,187.382l33.336-19.224c-1.6-2.769-2.822-5.742-3.644-8.843l-37.192,9.891c1.69,6.36,4.218,12.479,7.5,18.176ZM222.447,169.305c1.69-6.338,2.551-12.879,2.558-19.451l-38.483-.015c0,3.222-.423,6.428-1.253,9.529l37.177,9.937ZM113.028,149.794c0-3.222.423-6.428,1.26-9.529l-37.17-9.959c-1.698,6.338-2.566,12.879-2.566,19.451l38.483.038h-.008ZM185.277,140.31l37.185-9.906c-1.698-6.36-4.226-12.479-7.508-18.168l-33.329,19.239c1.6,2.769,2.83,5.742,3.652,8.835ZM117.948,131.43c1.577-2.724,3.524-5.251,5.773-7.515l.098-.098-13.763-13.762-13.235-13.649-.241.234c-4.648,4.648-8.662,9.861-11.93,15.505l33.299,19.285ZM110.055,110.047l.159.158-.159-.158ZM175.778,123.862l13.627-13.626,13.906-13.249-.347-.355c-4.648-4.648-9.877-8.669-15.529-11.944l-19.279,33.303c2.724,1.577,5.259,3.523,7.523,5.772l.098.098ZM131.424,117.969c2.762-1.6,5.735-2.822,8.836-3.652l-9.9-37.181c-6.368,1.697-12.48,4.218-18.177,7.507l19.241,33.326ZM159.321,114.333l9.952-37.173c-6.338-1.698-12.88-2.558-19.453-2.565l-.023,38.479c3.222,0,6.429.422,9.53,1.252l-.008.008Z"/>
  </g>
</svg>