<?xml version="1.0" encoding="UTF-8"?>
<svg id="Layer_1" data-name="Layer 1" xmlns="http://www.w3.org/2000/svg" viewBox="0 0 300 300">
  <defs>
    <style>
      .cls-1 {
        fill: #fff;
        fill-rule: evenodd;
      }

      .cls-2 {
        fill: #625afd;
      }
    </style>
  </defs>
  <circle class="cls-2" cx="150" cy="150" r="150"/>
  <path class="cls-1" d="M73.948,227.253c-.179-.175-.357-.355-.532-.539h-.003c-.004-.005-.007-.01-.011-.014-9.462-9.958-15.238-23.069-18.883-36.146-2.089-8.099-2.773-16.353-3.456-24.608-.133-1.607-.266-3.215-.41-4.82-.539-8.14-.909-16.606-.436-24.78.379-8.556,2.12-16.73,3.945-25.307l.016-.078c3.564-17.634,12.501-34.526,27.684-44.814,8.932-6.127,19.44-9.501,29.927-11.695,16.603-3.67,33.097-4.863,49.877-4.332,23.469-.087,47.939,6.697,65.341,23.113,12.174,12.052,21.158,28.085,22.655,45.308-.246,10.058-.184,19.803.297,29.77.098,8.077.108,16.718-1.143,24.91-.825,6.324-2.622,13.058-4.281,19.271-.078.293-.156.585-.234.876-9.417,40.67-42.724,52.889-80.664,55.445-4.019.186-8.064.268-12.109.35-4.173.084-8.344.169-12.482.368-1.445.052-2.897.119-4.353.186-5.242.243-10.544.489-15.816.005-16.891-2.355-32.905-10.345-44.929-22.469ZM103.394,229.98c5.753,3.575,11.84,6.662,18.188,9.202.976.39,1.959.797,2.948,1.205,4.739,1.96,9.637,3.985,14.736,4.621,12.462,1.711,24.993-2.523,35.731-8.591,10.543-6.427,18.889-15.329,27.248-24.245,5.571-5.942,11.148-11.891,17.384-17.117,4.372-3.947,8.78-8.217,12.331-12.97,8.615-12.585,14.824-27.868,14.149-43.366-.087-6.339-2.901-12.307-5.669-17.816-3.057-6.5-6.353-12.871-10.105-18.91-2.449,6.02-6.219,11.318-9.993,16.621-.207.292-.415.583-.621.874-4.924,7.472-8.389,15.608-11.868,23.778-2.25,5.284-4.506,10.582-7.167,15.723-3.952,9.126-8.13,18.737-15.616,25.525-6.372,6.329-15.193,9.682-23.573,12.868-1.077.409-2.146.816-3.202,1.225-9.021,3.946-17.62,8.209-25.881,13.345-3.822,2.191-7.386,4.75-10.959,7.315-4.387,3.151-8.788,6.31-13.695,8.809-1.376.674-2.84,1.317-4.367,1.902ZM200.574,69.939c-19.3-13.759-43.652-20.541-66.525-10.656-13.031,4.625-22.251,14.64-31.377,24.554-2.952,3.206-5.894,6.402-8.952,9.401-3.21,3.533-6.688,6.84-10.171,10.153-4.875,4.637-9.76,9.283-13.938,14.571-3.761,4.689-6.622,10.272-8.948,15.802-6.186,14.227-7.87,30.813-1.842,45.36,2.246,5.733,4.956,11.224,8.207,16.392,1.006,1.412,2.072,2.821,3.183,4.221,2.901-8.174,8.028-16.313,12.54-23.476,1.938-3.077,3.763-5.973,5.249-8.615,3.73-6.16,6.82-12.67,9.923-19.207,1.08-2.275,2.161-4.554,3.272-6.821,1.04-2.324,1.977-4.793,2.927-7.295,2.709-7.135,5.52-14.537,11.093-19.609,7.144-7.145,16.519-11.612,25.866-15.307,9.22-3.811,18.055-7.937,26.877-12.259,4.443-2.077,8.775-4.687,13.127-7.309,6.323-3.809,12.686-7.644,19.49-9.901ZM84.655,215.487s-.002-.002-.004-.003h0s-.001,0-.001,0c-4.69-4.939-4.052-13.075-2.933-19.921,2.643-13.304,8.592-26.959,18.896-36.452,3.434-3.246,7.082-6.28,10.874-9.119,2.943-2.111,6.308-3.817,9.686-5.53,5.228-2.65,10.489-5.318,14.273-9.53,5.339-5.266,9.31-11.677,13.287-18.099.941-1.519,1.882-3.039,2.842-4.544,5.182-7.962,11.645-14.971,19.103-20.737,9.13-7.58,36.184-16.61,45.672-7.668,3.621,5.209,2.949,11.76,2.278,18.301-.06.578-.119,1.156-.175,1.733-.483,4.466-1.071,9.234-2.615,13.65-3.052,9.036-9.713,16.098-16.88,22.158-6.776,6.576-14.866,11.771-22.861,16.67-7.81,5.229-13.902,11.614-18.483,19.912-4.336,8.489-9.251,17.057-16.263,23.618-9.683,10.263-23.413,15.733-37.156,17.291-6.852,1.064-14.013,1.909-19.539-1.73Z"/>
</svg>