<?xml version="1.0" encoding="UTF-8"?>
<svg id="Layer_1" data-name="Layer 1" xmlns="http://www.w3.org/2000/svg" viewBox="0 0 300 300">
  <defs>
    <style>
      .cls-1 {
        fill: #ff0420;
      }

      .cls-2 {
        fill: #fff;
      }
    </style>
  </defs>
  <path class="cls-2" d="M149.779,226.194v56.044c-57.649,0-104.395-46.747-104.395-104.395s46.747-104.395,104.395-104.395V17.402c57.648,0,104.395,46.747,104.395,104.395s-46.747,104.396-104.395,104.396Z"/>
  <path class="cls-1" d="M149.779-.18C66.944-.18-.221,66.985-.221,149.82s67.165,150,150,150,150-67.165,150-150S232.614-.18,149.779-.18ZM149.779,226.194v56.044c-57.649,0-104.395-46.747-104.395-104.395s46.747-104.395,104.395-104.395V17.403c57.648,0,104.395,46.747,104.395,104.395s-46.747,104.396-104.395,104.396ZM201.427,149.336v.968c-22.769,11.341-39.824,28.395-51.164,51.164h-.968c-11.341-22.769-28.396-39.823-51.165-51.164v-.968c22.769-11.341,39.824-28.395,51.165-51.164h.968c11.34,22.769,28.395,39.823,51.164,51.164Z"/>
</svg>