<?xml version="1.0" encoding="UTF-8"?>
<svg id="Layer_1" data-name="Layer 1" xmlns="http://www.w3.org/2000/svg" xmlns:xlink="http://www.w3.org/1999/xlink" viewBox="0 0 300 300">
  <defs>
    <style>
      .cls-1 {
        fill: #fff;
        fill-rule: evenodd;
      }

      .cls-2 {
        fill: url(#linear-gradient-2);
      }

      .cls-3 {
        fill: #d9d9d9;
      }

      .cls-4 {
        fill: url(#linear-gradient);
      }
    </style>
    <linearGradient id="linear-gradient" x1="-.221" y1="952.18" x2="299.779" y2="952.18" gradientTransform="translate(0 1102) scale(1 -1)" gradientUnits="userSpaceOnUse">
      <stop offset="0" stop-color="#ad00ff"/>
      <stop offset=".519" stop-color="#5d00ba"/>
      <stop offset="1" stop-color="#30f"/>
    </linearGradient>
    <linearGradient id="linear-gradient-2" x1="149.779" y1="1102.18" x2="149.779" y2="802.18" gradientTransform="translate(0 1102) scale(1 -1)" gradientUnits="userSpaceOnUse">
      <stop offset="0" stop-color="#c750ff"/>
      <stop offset="1" stop-color="#5800e8"/>
    </linearGradient>
  </defs>
  <circle class="cls-3" cx="149.779" cy="149.82" r="150"/>
  <circle class="cls-4" cx="149.779" cy="149.82" r="150"/>
  <circle class="cls-2" cx="149.779" cy="149.82" r="150"/>
  <path class="cls-1" d="M212.05,72.851c.973.789.403,2.33-.851,2.33h-122.84c-1.254,0-1.824-1.54-.849-2.33,17.009-13.777,38.675-22.031,62.269-22.031s45.26,8.253,62.271,22.031Z"/>
  <path class="cls-1" d="M111.269,176.775c-.708-1.011-1.849-1.646-3.083-1.646h-51.795c-1.187,0-2.052,1.126-1.722,2.267,11.942,41.259,50.003,71.424,95.11,71.424s83.167-30.165,95.109-71.424c.332-1.14-.534-2.267-1.721-2.267h-51.795c-1.233,0-2.373.634-3.083,1.646-8.5,12.122-22.581,20.048-38.511,20.048s-30.01-7.926-38.511-20.048Z"/>
  <path class="cls-1" d="M184.605,118.252c.717.789,1.722,1.265,2.788,1.265h54.182c1.227,0,2.098-1.195,1.692-2.353-3.823-10.946-9.516-21.016-16.693-29.826-.672-.827-1.689-1.295-2.756-1.295H75.741c-1.067,0-2.082.468-2.756,1.295-7.178,8.811-12.87,18.88-16.694,29.826-.405,1.158.466,2.353,1.693,2.353h54.182c1.066,0,2.072-.475,2.788-1.265,8.6-9.481,21.017-15.434,34.826-15.434s26.225,5.954,34.824,15.434Z"/>
  <path class="cls-1" d="M196.378,164.289c-.921,0-1.576-.899-1.327-1.785,1.13-4.038,1.732-8.295,1.732-12.693,0-6.189-1.195-12.099-3.367-17.51-.369-.916.291-1.938,1.276-1.938h51.066c.647,0,1.206.457,1.325,1.093,1.114,5.949,1.698,12.085,1.698,18.357,0,4.515-.303,8.961-.887,13.315-.092.667-.663,1.161-1.337,1.161h-50.18ZM104.508,162.504c.248.886-.406,1.785-1.327,1.785h-50.18c-.673,0-1.246-.494-1.336-1.161-.585-4.354-.888-8.801-.888-13.315,0-6.272.583-12.408,1.699-18.357.119-.636.677-1.093,1.325-1.093h51.065c.987,0,1.647,1.022,1.279,1.938-2.174,5.412-3.37,11.321-3.37,17.51,0,4.398.604,8.655,1.734,12.693Z"/>
</svg>