<?xml version="1.0" encoding="UTF-8"?>
<svg id="Layer_1" data-name="Layer 1" xmlns="http://www.w3.org/2000/svg" viewBox="0 0 300 300">
  <defs>
    <style>
      .cls-1 {
        fill: #fff;
        fill-rule: evenodd;
      }

      .cls-2 {
        fill: #009393;
      }
    </style>
  </defs>
  <circle class="cls-2" cx="150" cy="150" r="150"/>
  <path class="cls-1" d="M262.484,150.581c0,1.13,0,2.292-.063,3.423h-54.703v-2.481h-52.662v-3.109h52.662v-2.481h54.672c.063,1.539.094,3.109.094,4.648h0ZM154.145,139.37l51.532-6.343.314,2.481,54.421-6.689c-.534-2.669-1.13-5.307-1.821-7.913l-53.573,6.595.314,2.481-51.783,6.375c.22,1.005.44,2.01.628,3.046l-.031-.031ZM151.476,129.384l49.271-12.31.597,2.418,52.254-13.064c-1.068-2.544-2.23-5.024-3.486-7.442l-50.715,12.687.597,2.418-49.648,12.404c.408.942.785,1.916,1.162,2.889h-.031ZM147.111,120.058l46.036-17.397.879,2.324,48.706-18.402c-1.57-2.324-3.234-4.553-4.993-6.752l-46.57,17.585.879,2.324-46.602,17.585c.565.879,1.13,1.759,1.633,2.669l.031.063ZM141.05,111.422l40.666-21.197,1.162,2.198,44.969-23.426c-2.073-2.01-4.208-3.925-6.438-5.747l-42.268,22.013,1.162,2.198-41.357,21.542c.722.785,1.445,1.57,2.104,2.387v.031ZM131.253,102.127l36.804-23.395,1.319,2.104,40.635-25.844c-2.544-1.633-5.181-3.14-7.851-4.553l-37.087,23.583,1.319,2.104-37.872,24.086c.911.628,1.821,1.256,2.732,1.947v-.031ZM122.554,96.663l30.869-25.311,1.57,1.916,34.763-28.514c-2.952-1.13-5.967-2.135-9.044-3.015l-30.806,25.279,1.57,1.916-31.968,26.221c1.036.471,2.073.942,3.077,1.476l-.031.031ZM111.029,92.172l24.368-24.243,1.759,1.759,30.963-30.806c-3.36-.565-6.752-.973-10.206-1.225l-26.41,26.284,1.759,1.759-25.719,25.593c1.193.251,2.355.534,3.517.848l-.031.031ZM97.558,90.131l19.438-23.552,1.916,1.602,25.311-30.68c-3.831.188-7.631.534-11.368,1.099l-20.161,24.431,1.916,1.602-21.04,25.499h1.759c.565,0,1.476,0,2.23.031v-.031ZM85.907,90.822l14.979-23.175,2.073,1.35,18.088-28.011c-4.145,1.068-8.196,2.387-12.121,3.894l-12.749,19.721,2.073,1.35-16.581,25.687c1.382-.314,2.795-.597,4.208-.816h.031ZM72.969,94.433l10.771-20.192,2.198,1.162,14.257-26.724c-4.585,2.23-8.981,4.742-13.189,7.568l-8.196,15.356,2.198,1.162-12.687,23.74c1.507-.754,3.046-1.476,4.616-2.104l.031.031ZM63.674,99.175l4.585-13.001,2.355.816,8.887-25.248c-4.522,3.58-8.761,7.505-12.655,11.713l-3.831,10.865,2.355.816-5.998,17.02c1.382-1.068,2.826-2.041,4.334-2.983h-.031ZM52.275,108.47l2.01-9.421,2.418.534,4.082-19.03c-4.271,5.433-8.07,11.274-11.336,17.46l1.79.377-3.706,15.607c1.445-1.947,3.046-3.8,4.71-5.527h.031ZM43.859,119.524v-12.498c-3.015,8.008-5.181,17.931-6.343,27.666,1.413-5.401,3.548-10.488,6.343-15.167ZM37.61,165.56c1.193,8.322,3.266,16.361,6.155,23.992v-9.232c-2.669-4.553-4.773-9.515-6.155-14.728v-.031ZM47.941,186.474l3.234,15.105-1.79.377c3.234,6.186,7.034,12.027,11.336,17.46l-4.082-19.03-2.418.534-2.041-9.546c-1.476-1.57-2.889-3.203-4.208-4.899h-.031ZM59.246,197.716l6.029,17.114-2.355.816,3.831,10.865c3.925,4.208,8.165,8.133,12.655,11.713l-8.887-25.248-2.355.816-4.616-13.063c-1.476-.942-2.92-1.947-4.334-3.015h.031ZM68.227,203.369l12.718,23.835-2.198,1.162,8.196,15.356c4.208,2.795,8.604,5.338,13.189,7.568l-14.257-26.724-2.198,1.162-10.803-20.223c-1.57-.628-3.14-1.35-4.648-2.135h0ZM81.605,208.268l16.612,25.719-2.073,1.35,12.749,19.721c3.925,1.507,7.976,2.826,12.121,3.894l-18.088-28.011-2.073,1.35-14.979-23.207c-1.413-.22-2.826-.502-4.208-.848l-.063.031ZM93.475,209.838l21.071,25.53-1.916,1.602,20.16,24.431c3.737.565,7.537.911,11.368,1.099l-25.311-30.68-1.916,1.602-19.438-23.552c-.722,0-1.413.031-2.135.031h-1.853l-.031-.063ZM107.418,208.644l25.719,25.593-1.759,1.759,26.41,26.284c3.454-.251,6.846-.659,10.206-1.225l-30.963-30.806-1.759,1.759-24.368-24.243c-1.162.314-2.355.597-3.549.848l.063.031ZM119.414,204.813l31.968,26.221-1.57,1.916,30.806,25.279c3.077-.879,6.092-1.884,9.044-3.015l-34.763-28.514-1.57,1.916-30.837-25.279c-1.005.502-2.041,1.005-3.077,1.476ZM128.489,199.82l37.84,24.054-1.319,2.104,37.087,23.583c2.669-1.413,5.307-2.952,7.851-4.553l-40.635-25.844-1.319,2.104-36.773-23.395c-.879.659-1.79,1.319-2.732,1.947h0ZM138.915,190.965l41.294,21.542-1.162,2.198,42.268,22.013c2.23-1.821,4.365-3.768,6.438-5.747l-44.969-23.426-1.162,2.198-40.604-21.165c-.691.816-1.382,1.602-2.104,2.387h0ZM145.447,182.612l46.539,17.585-.879,2.324,46.57,17.585c1.759-2.198,3.423-4.428,4.993-6.752l-48.706-18.402-.879,2.324-45.973-17.366c-.534.911-1.068,1.79-1.633,2.669l-.031.031ZM150.314,173.505l49.585,12.404-.597,2.418,50.715,12.687c1.256-2.449,2.418-4.93,3.486-7.442l-52.254-13.064-.597,2.418-49.177-12.278c-.345.973-.754,1.947-1.162,2.889v-.031ZM153.517,163.644l51.689,6.375-.314,2.481,53.573,6.595c.691-2.606,1.319-5.244,1.821-7.913l-54.421-6.689-.314,2.481-51.438-6.343c-.188,1.036-.377,2.041-.628,3.046l.031-.031Z"/>
</svg>