<?xml version="1.0" encoding="UTF-8"?>
<svg id="Layer_1" data-name="Layer 1" xmlns="http://www.w3.org/2000/svg" xmlns:xlink="http://www.w3.org/1999/xlink" viewBox="0 0 300 300">
  <defs>
    <style>
      .cls-1 {
        fill: url(#linear-gradient-2);
      }

      .cls-2 {
        fill: url(#linear-gradient);
      }
    </style>
    <linearGradient id="linear-gradient" x1="43.934" y1="43.934" x2="256.066" y2="256.066" gradientUnits="userSpaceOnUse">
      <stop offset=".2" stop-color="#ffe298"/>
      <stop offset=".8" stop-color="#d1a3ff"/>
    </linearGradient>
    <linearGradient id="linear-gradient-2" x1="150" y1="0" x2="150" y2="300" gradientUnits="userSpaceOnUse">
      <stop offset="0" stop-color="#cdfe40"/>
      <stop offset=".152" stop-color="#c9f93e"/>
      <stop offset=".31" stop-color="#bfed39"/>
      <stop offset=".47" stop-color="#add832"/>
      <stop offset=".632" stop-color="#95bb27"/>
      <stop offset=".795" stop-color="#75961a"/>
      <stop offset=".958" stop-color="#4f6809"/>
      <stop offset="1" stop-color="#455c05"/>
    </linearGradient>
  </defs>
  <circle class="cls-2" cx="150" cy="150" r="150"/>
  <circle class="cls-1" cx="150" cy="150" r="150"/>
  <path d="M49.779,241.974c0-1.399,1.066-4.196,3.197-8.392,2.064-4.129,4.329-9.423,6.793-15.883,2.531-6.46,4.928-13.186,7.192-20.179,2.264-6.993,4.562-14.485,6.893-22.477l7.792-26.372-10.389,2.797c-2.597,0-4.728-1.366-6.393-4.096-.4-.732-.599-1.598-.599-2.597s.799-2.165,2.397-3.496c1.598-1.399,3.563-2.697,5.894-3.896,4.662-2.398,9.457-4.229,14.385-5.495l.899-2.797c1.798-5.594,3.496-11.388,5.095-17.382,1.665-6.06,3.396-11.954,5.194-17.681,1.865-5.727,3.962-11.155,6.293-16.283,2.331-5.194,5.061-9.723,8.191-13.586,6.926-8.391,15.617-12.587,26.073-12.587,7.725,0,13.852,2.065,18.381,6.194,4.529,4.129,6.793,9.723,6.793,16.782,0,7.326-2.098,13.686-6.294,19.08-3.53,4.462-7.459,6.693-11.788,6.693-5.394,0-9.057-2.464-10.988-7.393-.533-1.265-.799-2.331-.799-3.197,0-1.465.999-2.797,2.997-3.996,3.663-2.797,6.227-6.526,7.692-11.188.466-1.465.699-2.897.699-4.295,0-5.461-2.131-8.191-6.393-8.191-5.861,0-11.255,6.626-16.183,19.879-1.465,4.063-2.93,8.525-4.396,13.386l-9.39,31.867c6.06-.932,10.456-1.399,13.186-1.399,2.797,0,5.261.333,7.392.999,2.131.599,4.063,1.465,5.794,2.598,3.93,2.597,5.894,5.794,5.894,9.59s-1.865,5.694-5.594,5.694l-12.686-.499c-6.926,0-13.32.3-19.18.899l-8.191,28.969c-5.394,19.646-9.79,33.931-13.186,42.855-3.33,8.924-6.593,16.483-9.79,22.676-2.997,5.661-7.559,8.491-13.686,8.491s-9.19-2.032-9.19-6.094ZM156.108,217.799c-2.864,2.065-5.095,3.097-6.693,3.097-1.531,0-2.83-.233-3.896-.699-.999-.4-1.931-.932-2.797-1.598-1.998-1.665-2.997-3.163-2.997-4.495,0-1.399.732-2.664,2.198-3.796,0,0,2.031-1.632,6.094-4.895,10.922-8.991,19.946-18.747,27.072-29.269-5.794-16.25-8.458-29.769-7.992-40.558.266-5.328,2.564-9.923,6.893-13.786,3.996-3.463,8.258-5.194,12.787-5.194,1.332,0,2.198.466,2.597,1.398.4.932.599,2.298.599,4.096,0,1.731-.066,3.596-.199,5.594-.133,1.931-.167,3.996-.1,6.194.133,2.131.3,4.462.5,6.992.666,6.793,1.299,12.087,1.898,15.884l3.296-5.494c7.592-12.054,16.45-21.611,26.572-28.67,5.727-3.996,10.656-5.993,14.784-5.993,3.73,0,6.627.532,8.691,1.598,3.863,1.998,5.161,4.029,3.896,6.094-.2.333-.599.599-1.199.799l-2.497,1.199c-10.522,4.595-23.942,15.85-40.258,33.764-3.396,3.73-6.36,7.292-8.89,10.689l3.496,11.688c4.329,13.986,9.457,20.978,15.384,20.978,2.597,0,4.728-.399,6.393-1.199l3.596-1.598c.732-.333,1.432-.499,2.098-.499,1.399,0,2.098.699,2.098,2.098,0,5.861-2.997,10.789-8.991,14.785-3.996,2.664-8.525,3.996-13.586,3.996-9.789,0-18.647-10.089-26.572-30.269-8.391,12.321-16.483,21.344-24.275,27.072Z"/>
</svg>