<?xml version="1.0" encoding="UTF-8"?>
<svg id="Layer_1" data-name="Layer 1" xmlns="http://www.w3.org/2000/svg" xmlns:xlink="http://www.w3.org/1999/xlink" viewBox="0 0 300 300">
  <defs>
    <style>
      .cls-1 {
        fill: #232323;
      }

      .cls-2 {
        fill: url(#linear-gradient);
      }

      .cls-3 {
        fill: #fff;
      }
    </style>
    <linearGradient id="linear-gradient" x1="0" y1="150" x2="300" y2="150" gradientUnits="userSpaceOnUse">
      <stop offset="0" stop-color="#6d6d6d"/>
      <stop offset="1" stop-color="#d0ccc8"/>
    </linearGradient>
  </defs>
  <circle class="cls-1" cx="150" cy="150" r="150"/>
  <g>
    <circle cx="150" cy="150" r="150"/>
    <path class="cls-2" d="M150,15c36.06,0,69.961,14.042,95.459,39.541,25.498,25.498,39.541,59.4,39.541,95.459s-14.042,69.961-39.541,95.459c-25.498,25.498-59.4,39.541-95.459,39.541s-69.961-14.042-95.459-39.541c-25.498-25.498-39.541-59.4-39.541-95.459s14.042-69.961,39.541-95.459c25.498-25.498,59.4-39.541,95.459-39.541M150,0C67.157,0,0,67.157,0,150s67.157,150,150,150,150-67.157,150-150S232.843,0,150,0h0Z"/>
  </g>
  <g id="MRpZrY">
    <g>
      <polygon class="cls-3" points="62.628 88.192 97.4 132.245 111.329 132.99 150.143 170.822 188.223 132.99 202.152 132.245 236.438 89.228 239.779 87.98 150.27 245.728 59.779 88.469 62.628 88.192"/>
      <path class="cls-3" d="M221.576,81.913l-71.478,62.524-72.123-62.524c24.128,7.242,47.332,17.516,71.316,25.351l72.285-25.351Z"/>
    </g>
  </g>
</svg>