<?xml version="1.0" encoding="UTF-8"?>
<svg id="Layer_1" data-name="Layer 1" xmlns="http://www.w3.org/2000/svg" viewBox="0 0 300 300">
  <defs>
    <style>
      .cls-1 {
        fill: #ff3465;
      }

      .cls-1, .cls-2 {
        fill-rule: evenodd;
      }

      .cls-3, .cls-2 {
        fill: #0f102c;
      }

      .cls-4 {
        fill: rgba(11, 47, 81, .15);
      }

      .cls-5 {
        fill: #fff;
      }
    </style>
  </defs>
  <path class="cls-1" d="M147.933,18.612c-10.954-6.324-24.449-6.324-35.403,0L25.297,68.976c-10.953,6.324-17.701,18.011-17.701,30.659v100.73c0,12.648,6.748,24.335,17.701,30.66l87.234,50.365c10.954,6.324,24.449,6.324,35.403,0l63.385-36.596,35.899,20.727c2.35,1.357,5.245,1.357,7.595,0l33.795-19.512c2.35-1.357,3.797-3.864,3.797-6.577v-47.874c0-2.713-1.448-5.221-3.797-6.577l-35.739-20.634v-64.711c0-12.648-6.748-24.335-17.701-30.659l-87.234-50.365Z"/>
  <path class="cls-2" d="M108.733,12.034c13.303-7.681,29.693-7.681,42.997,0l87.234,50.365c13.303,7.681,21.498,21.875,21.498,37.237v60.325l31.941,18.442c4.7,2.713,7.595,7.728,7.595,13.154v47.874c0,5.427-2.895,10.441-7.594,13.154l-33.796,19.511c-4.699,2.713-10.49,2.713-15.19,0l-32.101-18.534-59.589,34.403c-13.303,7.681-29.693,7.681-42.997,0l-87.235-50.365c-13.303-7.68-21.499-21.874-21.499-37.236v-100.73c0-15.362,8.195-29.556,21.499-37.237L108.733,12.034ZM211.319,244.792l-63.386,36.596c-10.954,6.324-24.449,6.324-35.402,0l-87.235-50.365c-10.953-6.324-17.701-18.011-17.701-30.659v-100.73c0-12.648,6.748-24.335,17.701-30.659L112.531,18.611c10.953-6.324,24.448-6.324,35.402,0l87.234,50.365c10.954,6.324,17.701,18.011,17.701,30.659v64.71l35.739,20.634c2.351,1.357,3.797,3.864,3.797,6.577v47.874c0,2.713-1.447,5.221-3.797,6.577l-33.796,19.511c-2.35,1.357-5.245,1.357-7.595,0l-35.898-20.727Z"/>
  <path class="cls-3" d="M15.734,109.793c0-8.39,5.89-11.789,13.155-7.595l79.151,45.698c7.265,4.194,13.155,14.396,13.155,22.785v91.396c0,8.389-5.89,11.789-13.155,7.595l-79.151-45.699c-7.265-4.194-13.155-14.395-13.155-22.785v-91.395Z"/>
  <path class="cls-5" d="M45.752,146.553c-3.476-2.008-6.295-.381-6.295,3.634v43.328c0,4.015,2.818,8.896,6.295,10.903,3.476,2.008,6.295.381,6.295-3.634v-43.328c0-4.015-2.818-8.896-6.295-10.903Z"/>
  <path class="cls-5" d="M88.234,169.565c-3.476-2.008-6.295-.381-6.295,3.634v43.328c0,4.015,2.818,8.896,6.295,10.903,3.476,2.008,6.294.381,6.294-3.634v-43.328c0-4.015-2.818-8.896-6.294-10.903Z"/>
  <path class="cls-3" d="M141.742,72.114c6.773,3.91,6.773,10.25,0,14.161-6.773,3.91-17.754,3.91-24.527,0-6.773-3.91-6.773-10.25,0-14.161,6.773-3.91,17.754-3.91,24.527,0Z"/>
  <path class="cls-4" d="M229.22,199.097h0c8.627,4.981,15.621,17.094,15.621,27.056v15.606c0,9.962-6.994,14-15.621,9.019h0c-8.627-4.981-15.621-17.094-15.621-27.056v-15.606c0-9.962,6.994-13.999,15.621-9.019Z"/>
</svg>