<?xml version="1.0" encoding="UTF-8"?>
<svg id="Layer_1" data-name="Layer 1" xmlns="http://www.w3.org/2000/svg" viewBox="0 0 300 300">
  <defs>
    <style>
      .cls-1 {
        fill: #232323;
      }

      .cls-2 {
        fill: #fdb928;
      }
    </style>
  </defs>
  <circle class="cls-2" cx="150" cy="150" r="150"/>
  <g id="hKvxT6">
    <g>
      <g>
        <path class="cls-1" d="M178.278,179.781c2.087,1.451,6.471,8.719,9.557,11.391,5.512,4.771,14.853,7.603,19.606,11.984,1.564,1.442,1.956,3.164,3.592,4.789,6.84,6.791,20.692,14.348,28.892,20.75.632.494,1.553.97,1.722,1.817l-27.276-14.946-43.975-27.59c-1.971-.092-.447.688.122,1.171,5.629,4.782,10.527,10.15,16.318,14.615-2.249,4.156-27.691,9.352-29.002,8.062.056-3.194.008-7.423.799-10.489.557-2.16,2.389-4.001,2.459-6.621.081-3.041-1.394-7.205-.682-10.615l-11.248,5.185c-2.415,5.453-.769,9.903-.357,15.445l-9.99-6.409c-2.033.012-12.861,7.288-16.079,8.374-7.15,2.413-22.734-5.036-29.06-9.043-20.635-13.073-34.445-38.78-31.89-63.507.564-5.458,1.531-4.135,5.771-6.451l-2.262-4.813-15.767-18.718c.473-.438,4.803,3.301,5.463,3.879,1.797,1.575,8.328,8.424,9.699,9.001,1.297.546,1.746-2.201,1.304-3.19-1.256-2.813-11.133-10.058-13.897-12.589-4.977-4.557-9.749-9.405-14.819-13.864,2.644,1.023,5.251,2.753,7.682,4.239,9.482,5.795,22.165,13.524,30.946,19.985,13.397,9.858,25.182,24.723,38.498,34.997,5.725,2.553,14.701,2.972,20.033,5.755,3.972,2.074,9.365,9.786,13.134,12.01,2.888,1.704,7.719,2.141,10.946,3.882,3.824,2.064,7.441,6.695,11.226,8.76,2.452,1.338,7.146,1.786,8.535,2.751Z"/>
        <path class="cls-1" d="M215.042,217.797c.191.297,1.709,6.665,1.46,6.916-5.876-1.657-12.787,1.175-17.022-3.924-2.977-3.584-3.811-7.669-2.956-12.194,1.012-1.045,17.799,8.083,18.519,9.202Z"/>
      </g>
      <path class="cls-1" d="M231.334,170.561v10.96c-3.141-1.872-13.728-.219-14.193-4.85-.122-1.22,2.615-8.359,3.616-8.589l10.576,2.479Z"/>
      <path class="cls-1" d="M146.232,207.301c-6.775,2.499-13.996,4.293-21.27,4.514l12.592-9.04c1.233-.128,9.182,3.854,8.678,4.526Z"/>
      <path class="cls-1" d="M242.287,196.349c-5.203-3.397-12.354-4.966-12.891-12.245l7.093-1.009,5.797,13.254Z"/>
      <path class="cls-1" d="M192.645,216.98l-11.585-2.607-.661-5.126c9.059-2.581,10.161-1.03,12.246,7.732Z"/>
      <path class="cls-1" d="M209.413,191.186c-7.482-1.251-13.66-1.658-16.758-9.661,7.9-1.389,11.526,5.25,16.758,9.661Z"/>
      <path class="cls-1" d="M196.403,220.315l3.984,6.972-5.672.514-3.993-5.991c1.188-.67,4.581-2.143,5.682-1.496Z"/>
      <path class="cls-1" d="M228.752,158.315c.288.241-3.371,5.91-3.868,6.167-2.747,1.422-5.905-4.85-2.576-6.506,2.011-1,4.308.752,6.444.339Z"/>
      <path class="cls-1" d="M155.835,196.92c-7.408,1.035-4.34-5.002.707-6.373l-.707,6.373Z"/>
      <path class="cls-1" d="M234.557,169.923c3.4,1.429,4.469-3.483,7.65.302l-2.811,4.129-4.839-4.431Z"/>
      <path class="cls-1" d="M214.442,226.791c.506.282,2.402,4.817,3.353,5.655l-5.861-1.728.122-4.004c.725-.122,1.761-.272,2.387.077Z"/>
      <polygon class="cls-1" points="61.776 126.067 57.913 127.363 57.972 122.929 59.861 122.499 61.776 126.067"/>
      <path class="cls-1" d="M212.637,199.566c-2.473-.296-5.918-.726-5.799-3.858,3.036-.413,4.542,1.436,5.799,3.858Z"/>
      <path class="cls-1" d="M97.237,73.206l2.252-4.504c2.813,2.565,1.571,6.105-2.252,4.504Z"/>
      <g>
        <path class="cls-1" d="M262.279,218.269l-32.598-19.945c-1.887-.245-3.842.185-5.72-.08-5.906-.834-5.829-6.211-9.064-10.28-16.168-12.947-35.669-23.226-51.848-35.831-2.006-1.563-3.599-3.934-5.553-5.407-3.717-2.802-18.21-11.891-19.784-14.385-1.166-1.847-1.417-4.248-2.61-6.094l-19.809-8.235c-1.777-1.484-.37-7.208-3.001-8.604-11.895-6.02-23.265-14.29-36.052-18.102l-19.619-16.155,26.142,12.21,3.514-3.491-10.957-7.431c3.426-.078,17.263,8.628,19.002,8.377,2.109-.304-1.047-4.439-.865-5.397l5.299-3.537c6.294,6.763,5.286-2.856,5.659-3.236.348-.355,8.173-2.79,9.445-3.122,19.39-5.06,40.069-1.863,56.698,9.341,2.102,1.416,11.139,8.445,11.673,10.284.976,3.361-5.406,15.237-4.956,19.699,6.17,5.945,11.159,12.134,14.664,20.032-.694.427-1.762,2.746-1.984,2.877-1.59.937-14.979-5.409-17.928-5.68.855,4.688-4.799,6.127-6.404,9.903,1.293,2.43,12.861,9.638,10.265,12.657l-15.151-9.663,1.603,4.025c33.769,24.04,67.602,48.025,99.942,73.979v1.289Z"/>
        <path class="cls-1" d="M214.486,135.831c3.574,12.188,5.143,25.987.393,37.956-3.548-3.085-8.609-3.752-12.362-5.679-2.672-1.372-10.353-5.827-12.419-7.567-1.466-1.235-3.367-5.163-3.236-7.031.235-3.35,10.053-13.751,11.726-17.621l15.896-.059Z"/>
        <path class="cls-1" d="M205.542,132.521l-8.871-2.73c-1.338-3.594-2.075-8.444-4.123-11.669-1.379-2.172-7.087-6.44-7.529-7.987-.562-1.969,4.055-18.256,5.38-18.87,10.07,11.556,15.392,25.806,15.143,41.255Z"/>
        <path class="cls-1" d="M193.296,137.044c-1.603,1.694-8.252,11.649-9.881,11.503-1.27-.114-8.913-7.742-10.117-9.235-3.066-3.803-.338-4.502,1.029-8.741l18.969,6.473Z"/>
        <path class="cls-1" d="M88.852,71.919c-.445,2.392,1.896,5.27-.32,7.083l-5.467-4.823c.006-.821,5.351-2.724,5.787-2.26Z"/>
      </g>
    </g>
  </g>
</svg>