<?xml version="1.0" encoding="UTF-8"?>
<svg id="Layer_1" data-name="Layer 1" xmlns="http://www.w3.org/2000/svg" xmlns:xlink="http://www.w3.org/1999/xlink" viewBox="0 0 300 300">
  <defs>
    <style>
      .cls-1 {
        fill: #f8fbd3;
      }

      .cls-2 {
        fill: url(#linear-gradient);
      }
    </style>
    <linearGradient id="linear-gradient" x1="0" y1="150" x2="300" y2="150" gradientUnits="userSpaceOnUse">
      <stop offset="0" stop-color="#62839f"/>
      <stop offset="1" stop-color="#8a98a3"/>
    </linearGradient>
  </defs>
  <circle class="cls-2" cx="150" cy="150" r="150"/>
  <path class="cls-1" d="M145.483,107.342c1.057-2.885,3.941-4.582,6.578-3.047,2.39,1.436,3.046,4.544,3.37,7.159.984,10.581,1.168,21.489,1.377,32.16,5.369.119,10.871.274,16.12.432,6.041.386,12.319.216,18.259,1.55,6.781,1.936,5.639,8.829-1.019,9.924-8.932,1.303-16.447,1.195-25.742,1.527-2.566.065-5.104.136-7.629.195-.119,5.4-.274,10.939-.434,16.22-.385,6.041-.215,12.319-1.549,18.259-1.936,6.781-8.829,5.639-9.925-1.019-1.303-8.932-1.195-16.447-1.527-25.742-.065-2.585-.138-5.141-.197-7.682-.688-.019-1.377-.041-2.067-.069-6.295-.17-12.297-.254-18.554-.547-5.199-.439-10.731-.101-15.737-1.735-2.885-1.056-4.582-3.941-3.046-6.578,1.435-2.391,4.543-3.046,7.158-3.37,10.599-.986,21.526-1.171,32.215-1.38.018-.655.04-1.31.066-1.967.17-6.295.254-12.296.547-18.553.439-5.199.101-10.731,1.735-15.737ZM116.128,117.708c5.361-.254,10.729-.47,10.729,4.604,0,4.606-5.23,5.381-5.245,5.383-10.768,1.542-28.497,4.619-37.689,8.46-13.822,5.776-14.96,11.523-14.96,13.844,0,2.321,1.139,8.067,14.96,13.843,9.192,3.841,26.921,6.925,37.689,8.46.014.002,5.245.778,5.245,5.384,0,5.074-5.376,4.858-10.729,4.604-32.212-1.527-58.695-14.8-58.695-32.485,0-17.684,26.482-30.556,58.695-32.098ZM173.141,122.312c0-5.075,5.369-4.858,10.73-4.604,32.212,1.527,58.695,14.399,58.695,32.083v.015c0,17.684-26.482,30.958-58.695,32.485-5.354.254-10.73.47-10.73-4.604,0-4.598,5.215-5.379,5.246-5.384,10.769-1.535,28.498-4.619,37.689-8.46,13.822-5.776,14.961-11.522,14.961-13.843s-1.139-8.068-14.961-13.844c-9.191-3.841-26.921-6.918-37.689-8.46-.031-.005-5.246-.785-5.246-5.383Z"/>
</svg>