<?xml version="1.0" encoding="UTF-8"?>
<svg id="Layer_1" data-name="Layer 1" xmlns="http://www.w3.org/2000/svg" viewBox="0 0 300 300">
  <defs>
    <style>
      .cls-1 {
        fill: #292929;
      }

      .cls-2 {
        fill: #a1ba00;
      }
    </style>
  </defs>
  <circle class="cls-2" cx="150" cy="150" r="150"/>
  <path class="cls-1" d="M197.104,81.193c-24.665-3.227-68.872,32.565-39.164,53.37,15.604,10.927,35.531,6.62,46.43,25.995,25.493,45.317-40.932,91.301-82.071,89.385-30.232-1.408-50.715-24.712-47.355-54.873,3.278-29.418,35.43-45.587,55.686-19.741-35.359,27.775-8.522,59.324,27.114,33.038,5.266-3.885,14.068-13.044,15.1-19.574,6.098-38.555-41.571-29.786-56.096-55.322-25.491-44.816,72.771-106.27,103.775-74.882,12.311,12.463-1.67,30.261-8.615,42.628-2.524,4.495-18.92,31.941-21.792,32.483-1.393.263-16.623-5.708-16.809-8.058-.359-4.523,26.7-41.811,23.796-44.448Z"/>
</svg>