<?xml version="1.0" encoding="UTF-8"?>
<svg id="Layer_1" data-name="Layer 1" xmlns="http://www.w3.org/2000/svg" xmlns:xlink="http://www.w3.org/1999/xlink" viewBox="0 0 300 300">
  <defs>
    <style>
      .cls-1 {
        fill: url(#linear-gradient);
      }

      .cls-2 {
        fill: #fff;
      }
    </style>
    <linearGradient id="linear-gradient" x1="0" y1="150" x2="300" y2="150" gradientUnits="userSpaceOnUse">
      <stop offset="0" stop-color="#6d6d6d"/>
      <stop offset="1" stop-color="#d0ccc8"/>
    </linearGradient>
  </defs>
  <g>
    <circle cx="150" cy="150" r="150"/>
    <path class="cls-1" d="M150,15c36.06,0,69.961,14.042,95.459,39.541,25.498,25.498,39.541,59.4,39.541,95.459s-14.042,69.961-39.541,95.459c-25.498,25.498-59.4,39.541-95.459,39.541s-69.961-14.042-95.459-39.541c-25.498-25.498-39.541-59.4-39.541-95.459s14.042-69.961,39.541-95.459c25.498-25.498,59.4-39.541,95.459-39.541M150,0C67.157,0,0,67.157,0,150s67.157,150,150,150,150-67.157,150-150S232.843,0,150,0h0Z"/>
  </g>
  <g>
    <path class="cls-2" d="M50,194.171l150.374-76.257-34.973,5.348c-8.663,1.283-16.791-4.599-18.075-13.262l-5.134-32.62-3.529,16.364c-5.775,26.417-20.856,49.947-42.567,66.096l-45.989,34.332h-.107Z"/>
    <path class="cls-2" d="M250,105.829l-150.374,76.257,34.973-5.348c8.663-1.283,16.791,4.599,18.075,13.262l5.134,32.62,3.529-16.364c5.775-26.417,20.856-49.947,42.567-66.096l45.989-34.332h.107Z"/>
  </g>
</svg>