<?xml version="1.0" encoding="UTF-8"?>
<svg id="Layer_1" data-name="Layer 1" xmlns="http://www.w3.org/2000/svg" xmlns:xlink="http://www.w3.org/1999/xlink" viewBox="0 0 300 300">
  <defs>
    <style>
      .cls-1 {
        fill: url(#linear-gradient);
      }

      .cls-2 {
        fill-rule: evenodd;
      }

      .cls-3 {
        fill: #fff;
      }
    </style>
    <linearGradient id="linear-gradient" x1="0" y1="150" x2="300" y2="150" gradientUnits="userSpaceOnUse">
      <stop offset="0" stop-color="#9af3ee"/>
      <stop offset=".4" stop-color="#b6ffd8"/>
      <stop offset=".7" stop-color="#a5e6f5"/>
      <stop offset=".9" stop-color="#a1b8fe"/>
    </linearGradient>
  </defs>
  <circle class="cls-1" cx="150" cy="150" r="150"/>
  <g>
    <path class="cls-2" d="M215.834,50v54.745l20.835,20.835v113.897c0,5.813-4.711,10.523-10.523,10.523h-20.111l-4.363-4.363h-29.637l-4.363,4.363h-45.218l-59.124-59.123V50h152.504ZM232.775,239.346c.003,3.719-3.009,6.737-6.728,6.74-3.719.003-6.737-3.009-6.74-6.728v-.012c.003-3.719,3.021-6.731,6.74-6.728,3.714.003,6.725,3.014,6.728,6.728Z"/>
    <path class="cls-3" d="M206.056,90.417h-93.772v80.185l18.148,18.132h32.656l-41.006-41.006v-9.466h28.58l-28.58-28.58v-9.466h45.913l38.061,38.046v9.798h-28.263l28.263,28.263v43.044h-100.385l-32.552-32.551V59.784h132.937v30.633Z"/>
    <path d="M228.909,241.788c-.016-.151-.03-.287-.03-.438,0-.136,0-.256-.016-.362-.003-.169-.028-.336-.076-.498-.03-.159-.086-.312-.166-.453-.073-.137-.17-.259-.286-.362-.125-.111-.275-.188-.438-.226.362-.166.634-.378.8-.665.166-.286.242-.618.242-.996,0-.256-.046-.483-.136-.71-.088-.217-.222-.413-.392-.574-.173-.17-.379-.303-.604-.392-.256-.094-.528-.14-.801-.136h-3.533v6.567h1.45v-2.566h1.45c.362,0,.619.076.785.242.166.166.256.408.317.754.031.257.061.544.076.831.016.286.06.543.151.739h1.45c-.072-.1-.123-.213-.151-.332-.034-.139-.059-.28-.076-.422h-.015,0ZM227.248,238.723c-.166.151-.408.226-.74.226h-1.585v-1.842h1.585c.332,0,.574.076.74.212.166.15.242.378.242.694s-.076.574-.242.725v-.016h0Z"/>
  </g>
</svg>