<?xml version="1.0" encoding="UTF-8"?>
<svg id="Layer_1" data-name="Layer 1" xmlns="http://www.w3.org/2000/svg" viewBox="0 0 300 300">
  <defs>
    <style>
      .cls-1 {
        fill: #e5e5e5;
      }

      .cls-2 {
        fill: #060606;
      }
    </style>
  </defs>
  <circle class="cls-1" cx="150" cy="150" r="150"/>
  <g>
    <path class="cls-2" d="M181.501,148.85h-1.667l1.667-1.023c-1.667,0-2.946,0-4.226-.639-7.046,1.278-14.47,1.661-21.255,2.94-.387,0-1.027.639-1.027.639,0,0,.09.214.261.64,3.199,0,6.524.639,9.983.639,2.946,0,6.145-1.023,9.091-1.279-2.559,1.918-11.65,1.662-15.236,1.662-1.279,0-2.307.256-3.199.639.64,1.917,2.937,2.557,3.586,4.474,7.037,7.032,13.569,17.131,18.687,25.44,0,1.023.387,2.557,1.027,3.196v1.279c0,.64,1.027,1.662,1.667,1.918h.378s-.378.639-.378,1.022c0,1.279,2.946,2.301,2.946,3.197,0,.255,0,.639-.387.639-2.946-.384-3.586-1.917-4.865-4.219-2.946-1.917-3.586-6.137-7.046-7.798-.64-2.557-2.298-2.301-3.199-4.858l-2.946-6.392c1.279.384,2.307,1.279,2.307,2.557,1.919,4.474,5.118,7.415,7.424,11.633,1.027.384,1.027,1.662,2.307,1.918-1.919-5.498-5.118-12.529-10.371-16.108,0-1.023-.387-2.301-1.667-2.301-.64,0-.64,1.279-.378,1.662-1.288-1.918-1.928-3.836-3.847-5.114l.387-.639c0-1.662-1.027-2.94-2.307-3.196-.64-2.301-3.199,0-4.478-2.557-1.027-2.301-3.847-2.94-5.767-2.94-5.758,8.693-27.139,29.019-29.959,37.713-1.919.255-3.199,1.661-5.127,1.661-.378,0-1.658,0-1.658-.639s1.279-1.279,1.658-2.301c3.208-5.114,32.013-35.156,32.013-38.992,0-1.023-2.307-1.662-3.199-1.662-1.027-.383-2.307-.639-3.199-.639-2.946,0-5.505.639-8.325.639-6.785,0-13.831,1.279-21.003,1.279-1.279,0-.64-1.279-1.658-2.301,2.298-.383,4.226-1.917,6.523-1.917.64,0,1.928.256,2.946,1.023,1.919,0,3.847.384,5.767.384,7.037,0,17.155-.384,23.94-1.917.387-.256.64-.256.64-.64s-1.667-.639-1.279-1.661c0-1.279-7.424-7.798-7.424-9.716.378,0,.378-.384.378-.384,0-3.58-11.263-16.747-14.209-19.943v-.256c0-1.917-1.667-2.94-1.667-4.474,0-.639,1.027-1.279,1.667-1.279,1.027,0,1.667,1.279,2.307,1.918-.261.255-.64.639-.64,1.023,0,1.661,7.037,10.61,7.677,10.61.387,0,.387-1.023.649-1.023,7.424,4.474,9.344,12.912,14.209,19.304,4.866,0,15.489-26.079,21.643-28.38h.64c-5.505,8.054-11.659,15.853-16.137,24.546l.64.639c2.946-1.279,2.307-4.474,3.586-5.497.64-1.023,3.838-2.94,3.838-3.835,0-.64,8.073-10.611,9.731-14.19,1.667-1.662,2.568-3.58,4.226-5.497l-2.298.639c.64-2.557,6.145-5.753,8.704-5.497-2.946,5.113-8.325,8.054-10.632,13.551-2.946,6.136-6.145,9.716-10.371,14.829v.256c0,1.023-1.919,1.917-1.919,2.941-1.919,3.196-8.064,6.775-8.064,11.249,1.027.384,2.307.384,3.199.384,8.452,0,17.155-1.917,25.481-1.917,2.946,0,7.046-.256,9.731,1.023-3.199,1.279-6.785,1.661-9.983,1.917h-.514ZM174.968,150.128h-1.667l5.767-1.279c-.64.256-3.847,1.279-4.226,1.279h.126Z"/>
    <path class="cls-2" d="M215.046,161.889c-1.667,1.279-4.478,3.196-4.226,5.753v1.023c-2.559,3.836-2.946,8.438-5.505,12.273-.252.384-.387.895-.64,1.279,3.964-21.734,5.253-46.662,5.253-60.852,0-13.168-4.487-26.08-5.767-39.375-.64-10.355-1.027-21.605-7.812-29.915-6.785-7.67-16.128-13.551-26.76-13.551-1.667,0-3.199,0-4.866.256-1.279-1.023-2.946-1.278-4.478-1.278-4.866,0-8.713,3.58-13.191,3.58-1.279,0-2.559-.256-3.586-.639l-1.667,1.662,5.767.256c.387.639,1.027,1.278,1.027,1.918,0,1.918-5.505,1.278-6.154,4.474-10.371,5.497-21.255,18.665-27.4,28.381-3.586,5.753-6.785,12.912-9.983,19.048-.387.256-2.559,5.114-3.199,5.114,0,2.301-.64,4.219-1.027,6.137-2.559,2.556-1.027,7.415-3.586,9.971-3.838,12.273-7.041,27.359-7.041,40.014,0,1.023-.641,1.279-1.665,1.662-.256-2.941-1.28-6.137-1.024-9.333v-1.917c1.281-29.02,1.921-53.565,19.075-78.622,12.939-19.048,29.328-21.861,34.194-27.741-1.027,0-1.667-.383-2.559-.383-2.568,0-5.127,1.278-6.406,3.579-18.435,6.136-27.4,22.884-35.212,38.992-1.279,1.918-2.946,3.196-3.199,5.753-1.283,5.753-2.307,11.25-4.483,17.131-.641,2.301-1.921,5.753-1.921,8.054,0,1.917,1.024,3.835,1.024,5.753,0,2.556-.384,4.857-1.024,7.415-3.585,17.77-4.482,37.074-4.482,55.099,0,14.446,6.403,27.359,11.012,40.654,4.866,14.19,15.236,25.823,26.121,35.412l8.064,1.279c1.919,1.661,4.226,2.3,6.785,2.3,3.586,0,7.046-1.278,10.632-1.023h1.279c4.478-2.94,12.29-4.857,15.876-8.693,1.027-.639,1.667-2.94,2.946-2.94.252,0,.64,0,1.027.256,6.785-7.415,15.236-13.551,21.255-21.222,3.199-3.836,5.118-8.693,8.064-12.913,1.027-1.278,1.027-3.196,2.559-4.219,3.838-9.716,19.336-40.653,19.336-48.962v-1.024h-2.307l-.126.128ZM138.225,259.944c-9.992,0-21.255-3.58-27.148-11.889-4.487-5.753-10.632-11.25-13.578-18.41-2.937-3.196-12.544-41.932-12.544-47.685,0-.256,0-1.661,1.024-1.661,3.841,0,11.015,20.582,11.655,23.522,2.946,9.717,8.452,19.943,12.93,29.02,2.559,4.474,6.145,7.798,8.704,12.273,3.208,1.023,4.866,4.474,8.325,5.114,1.667,2.94,4.866,3.196,6.785,5.496,1.279,0,4.866,1.024,4.866,2.557,0,.64,0,1.662-1.018,1.662ZM161.777,245.37c-2.298,4.219-11.263,9.333-15.489,9.333-4.487,0-8.452-4.219-12.93-4.474-1.027-3.197-4.487-1.662-6.794-3.197-5.505-3.835-12.93-11.633-16.128-17.386-5.505-10.355-10.371-23.906-13.191-34.773-1.279-4.474-1.279-30.682-1.279-36.051,0-19.304-.64-34.517,7.424-52.159,0-3.835,3.847-6.136,3.847-9.077v-1.278c2.298-2.557,2.298-6.776,5.118-9.077,2.946-9.332,11.65-15.213,16.137-23.906,3.577-1.662,4.478-6.392,7.803-8.693,7.046-4.474,14.47-10.994,23.562-10.994,1.027.639,1.919,1.279,3.199,1.279.64,0,1.027-.256,1.667-.256l1.279-1.023c1.279.256,2.946,1.662,3.586-.639,5.767,1.278,13.831-1.662,17.417,4.858,12.542,8.054,8.704,25.185,13.831,36.69,1.018,10.355,1.919,20.583,2.298,31.321.387,14.446,2.307,29.02,2.307,43.849,0,12.017-.766,19.56-2.811,26.591-1.289,2.429-2.694,4.858-3.974,7.542-3.586,1.918-4.226,7.032-8.064,8.438-2.433,4.73-5.505,11.25-8.839,18.026h-.126c-.387-.384-.514-.768-.766-1.279-.901,1.023-1.667,2.173-2.694,3.068.514.639,1.027,1.406,1.541,1.917-5.127,9.461-11.146,18.41-17.795,21.35h-.135ZM197.764,198.452c-1.928,4.092-4.361,8.693-7.298,14.318-2.433,1.023-3.721,3.58-5.379,5.497.378-1.023.64-1.917,1.279-2.556,2.811-6.392,7.172-11.762,11.524-17.259h-.126ZM180.474,231.563c-.387,1.662-1.667,1.918-2.946,2.301,1.279-3.452,2.82-6.776,4.487-9.972,3.073-1.151,5.884-3.835,8.956-5.497-3.199,4.602-6.659,9.077-10.497,13.168ZM200.323,200.242c.766-2.429,1.406-4.986,2.045-7.67.64-.896,1.279-1.662,1.919-2.557,0,3.963-2.045,7.031-4.091,10.228h.126Z"/>
  </g>
</svg>