<?xml version="1.0" encoding="UTF-8"?>
<svg id="Layer_1" data-name="Layer 1" xmlns="http://www.w3.org/2000/svg" xmlns:xlink="http://www.w3.org/1999/xlink" viewBox="0 0 300 300">
  <defs>
    <style>
      .cls-1 {
        fill: url(#linear-gradient);
      }

      .cls-2 {
        fill: #fff;
      }
    </style>
    <linearGradient id="linear-gradient" x1="150" y1="0" x2="150" y2="300" gradientUnits="userSpaceOnUse">
      <stop offset="0" stop-color="#3068ef"/>
      <stop offset="1" stop-color="#1322ac"/>
    </linearGradient>
  </defs>
  <circle class="cls-1" cx="150" cy="150" r="150"/>
  <path class="cls-2" d="M253.043,173.831l-.284.299c-.133.137-.267.274-.403.409l-77.922,77.797c-13.574,13.553-35.582,13.553-49.156,0l-21.518-21.483c-1.526-1.517-1.529-3.984-.01-5.508.447-.448.996-.781,1.6-.97,23.064-7.12,41.805-15.338,56.221-24.655,34.333-22.189,64.824-30.819,91.473-25.889ZM236.707,109.834c28.77,9.066,25.412,30.23,25.793,38.573-31.507-16.521-69.411-10.466-113.711,18.165-33.019,21.34-60.679,30.139-82.977,26.395-22.298-3.743-27.314-30.976-28.312-38.212,24.502,12.389,57.338,5.278,98.507-21.329,38.363-24.794,71.93-32.658,100.699-23.592ZM174.433,47.664l20.219,20.184c1.523,1.52,1.525,3.987.006,5.51-.542.543-1.233.914-1.985,1.066-29.27,5.897-52.679,14.516-70.226,25.856-30.069,19.433-55.693,28.466-76.872,27.098l.002-.006L125.277,47.664c13.574-13.552,35.582-13.552,49.156,0Z"/>
</svg>