<?xml version="1.0" encoding="UTF-8"?>
<svg id="Layer_1" data-name="Layer 1" xmlns="http://www.w3.org/2000/svg" viewBox="0 0 300 300">
  <defs>
    <style>
      .cls-1 {
        fill: #fff;
      }

      .cls-2 {
        fill: #e81899;
      }
    </style>
  </defs>
  <circle class="cls-2" cx="150" cy="150" r="150"/>
  <path class="cls-1" d="M245.577,194.919l-34.272-46.562c-3.723-5.06-9.236-8.091-15.107-8.76-1.337-.154-2.53-.93-3.198-2.1-.68-1.17-.752-2.59-.215-3.831,2.351-5.417,2.494-11.706-.036-17.458l-23.185-52.958c-3.437-7.864-11.205-12.935-19.785-12.935s-16.348,5.083-19.785,12.935l-23.186,52.958c-2.518,5.751-2.387,12.041-.036,17.458.537,1.241.453,2.661-.215,3.831-.68,1.17-1.862,1.945-3.198,2.1-5.871.668-11.384,3.7-15.107,8.76l-34.271,46.562c-5.083,6.909-5.597,16.169-1.313,23.603,4.296,7.422,12.577,11.611,21.097,10.668l57.457-6.396c6.241-.692,11.623-3.95,15.131-8.699.8-1.086,2.077-1.73,3.425-1.73s2.614.644,3.425,1.73c3.508,4.749,8.89,8.007,15.131,8.699l57.457,6.396c8.52.955,16.801-3.234,21.098-10.668,4.283-7.434,3.77-16.694-1.313-23.603ZM121.797,122.856l23.221-53.018c.835-1.897,2.709-3.126,4.774-3.126s3.937,1.229,4.773,3.126l23.222,53.018c.728,1.671.573,3.604-.43,5.132-1.002,1.528-2.697,2.446-4.535,2.446h-46.073c-1.825,0-3.532-.918-4.534-2.446-1.002-1.528-1.158-3.461-.43-5.132h.012ZM133.718,203.57c-.823,1.635-2.423,2.732-4.237,2.935l-57.517,6.397c-2.052.227-4.057-.776-5.095-2.566-1.038-1.79-.907-4.022.322-5.692l34.307-46.61c1.086-1.468,2.828-2.303,4.654-2.196,1.826.095,3.472,1.11,4.391,2.696l.036.06,22.971,39.785.036.06c.919,1.587.967,3.521.143,5.144l-.012-.012ZM154.504,185.576c-.978,1.682-2.768,2.732-4.725,2.732-1.945,0-3.747-1.038-4.726-2.72l-17.649-30.56c-.979-1.683-.979-3.771,0-5.454.979-1.682,2.769-2.732,4.726-2.732h35.285c1.945,0,3.747,1.026,4.726,2.72.978,1.695.978,3.771,0,5.454l-17.638,30.56ZM232.701,210.336c-1.038,1.79-3.031,2.804-5.095,2.578l-57.517-6.397c-1.814-.203-3.413-1.3-4.237-2.935-.823-1.635-.776-3.568.143-5.144l.036-.06,22.971-39.785.036-.06c.919-1.586,2.565-2.601,4.391-2.696,1.826-.095,3.568.728,4.654,2.196l34.307,46.61c1.229,1.67,1.349,3.902.322,5.692h-.012Z"/>
</svg>