<?xml version="1.0" encoding="UTF-8"?>
<svg id="Layer_1" data-name="Layer 1" xmlns="http://www.w3.org/2000/svg" xmlns:xlink="http://www.w3.org/1999/xlink" viewBox="0 0 300 300">
  <defs>
    <style>
      .cls-1 {
        fill: url(#linear-gradient);
      }

      .cls-2 {
        fill: #fff;
      }

      .cls-3 {
        fill: #440b38;
      }
    </style>
    <linearGradient id="linear-gradient" x1="0" y1="150" x2="300" y2="150" gradientUnits="userSpaceOnUse">
      <stop offset="0" stop-color="#20a1f4"/>
      <stop offset=".5" stop-color="#c041b2"/>
      <stop offset="1" stop-color="#f86d4e"/>
    </linearGradient>
  </defs>
  <g>
    <circle class="cls-3" cx="150" cy="150" r="150"/>
    <path class="cls-1" d="M150,15c36.06,0,69.961,14.042,95.459,39.541,25.498,25.498,39.541,59.4,39.541,95.459s-14.042,69.961-39.541,95.459c-25.498,25.498-59.4,39.541-95.459,39.541s-69.961-14.042-95.459-39.541c-25.498-25.498-39.541-59.4-39.541-95.459s14.042-69.961,39.541-95.459c25.498-25.498,59.4-39.541,95.459-39.541M150,0C67.157,0,0,67.157,0,150s67.157,150,150,150,150-67.157,150-150S232.843,0,150,0h0Z"/>
  </g>
  <g id="z2X9PB">
    <g>
      <polygon class="cls-2" points="175.585 45 175.585 54.304 163.623 54.304 163.623 100.158 194.858 100.158 194.858 132.057 185.554 123.75 185.554 109.462 154.32 109.462 154.32 54.304 145.68 54.304 145.68 109.462 114.446 109.462 114.446 124.082 105.142 132.057 105.142 100.158 136.377 100.158 136.377 54.304 124.415 54.304 124.415 45 175.585 45"/>
      <g>
        <polygon class="cls-2" points="128.402 116.108 128.402 156.646 149.891 168.455 170.934 156.646 170.934 116.108 180.237 116.108 180.237 161.63 159.638 174.259 166.949 178.357 166.319 218.155 155.264 230.411 157.536 184.024 149.944 179.891 141.782 184.024 144.345 230.411 133.681 218.819 133.027 178.357 140.361 174.259 119.098 161.63 119.098 116.108 128.402 116.108"/>
        <polygon class="cls-2" points="180.902 223.434 152.319 255 155.37 238.44 171.462 219.31 171.593 172.923 180.902 166.614 180.902 223.434"/>
        <polygon class="cls-2" points="119.098 166.614 128.405 172.924 128.698 219.815 145.338 238.396 147.667 255 119.098 223.434 119.098 166.614"/>
        <path class="cls-2" d="M163.623,116.108v9.304h-9.304v28.908s-3.991,4.964-4.32,4.964c-.77-.574-4.32-4.964-4.32-4.964v-28.908h-9.304v-9.304h27.247Z"/>
      </g>
    </g>
  </g>
</svg>