<?xml version="1.0" encoding="UTF-8"?>
<svg id="Layer_1" data-name="Layer 1" xmlns="http://www.w3.org/2000/svg" viewBox="0 0 300 300">
  <defs>
    <style>
      .cls-1 {
        fill: #9e8ffe;
      }

      .cls-2 {
        fill: #fdfdfe;
      }

      .cls-3 {
        fill: #cdc5fe;
      }

      .cls-4 {
        fill: #5f46fe;
      }
    </style>
  </defs>
  <circle class="cls-4" cx="150" cy="150" r="150"/>
  <g id="_3SgFjp" data-name="3SgFjp">
    <g>
      <path class="cls-2" d="M64.861,111.209c-13.116-13.584-25.916-36.759-.365-45.526,40.507-13.898,130.123,24.582,153.898,59.617,12.962,19.101,8.853,34.271-14.991,38.212-40.756,6.735-110.158-22.904-138.543-52.302Z"/>
      <path class="cls-3" d="M229.276,147.916c26.707,4.242,25.984,17.481,5.579,31.107-26.899,17.963-87.924,30.824-119.284,23.967-33.999-7.434-11.224-28.473,7.601-36.625,24.135,6.474,50.646,12.832,75.687,8.495,14.332-2.482,31.492-9.893,30.416-26.943Z"/>
      <path class="cls-1" d="M125.845,210.331c24.858,2.679,49.844.613,74.302-4.208,8.616,2.925,31.844,15.912,18.157,25.594-17.009,12.032-74.588,1.192-89.041-14.029-.996-1.049-4.609-6.217-3.418-7.356Z"/>
    </g>
  </g>
</svg>